<?xml version="1.0" encoding="utf-8"?>
<!-- Generator: Adobe Illustrator 24.1.2, SVG Export Plug-In . SVG Version: 6.00 Build 0)  -->
<svg version="1.1" id="Слой_1" xmlns="http://www.w3.org/2000/svg" xmlns:xlink="http://www.w3.org/1999/xlink" x="0px" y="0px"
	 width="463.9px" height="500px" viewBox="0 0 463.9 500" enable-background="new 0 0 463.9 500" xml:space="preserve">
<path d="M183.9,500.4c19.4,0,35.1-15.7,35.1-35.1c0-19.4-15.7-35.1-35.1-35.1c-19.4,0-35.1,15.7-35.1,35.1
	C148.8,484.7,164.5,500.4,183.9,500.4z"/>
<path d="M367.9,500.4c19.4,0,35.1-15.7,35.1-35.1c0-19.4-15.7-35.1-35.1-35.1c-19.4,0-35.1,15.7-35.1,35.1
	C332.9,484.7,348.5,500.4,367.9,500.4z"/>
<path d="M141.4,327.1H410c9.8,0,18-7.4,20.1-16.8l33.4-174.9c1-5.8,0-11.6-3.6-16.3c-3.6-4.7-8.7-7.9-14.4-8.4l-320-32l-9.3-60.4
	c-1.5-10-10.3-17.9-20.1-17.9H20.5c-11.3,0-20.6,9.5-20.6,21c0,11.6,9.3,21,20.6,21h58.1l39.1,247.9c-22.6,9.5-38.1,32.6-38.1,58.8
	c0,35.2,27.8,63.6,62.3,63.6h273.7c11.3,0,20.6-9.5,20.6-21c0-11.6-9.3-21-20.6-21H141.4c-11.8,0-21.6-10-21.6-22.1
	C120.3,337.1,129.6,327.1,141.4,327.1z M419.2,149.5l-25.7,135.5H157.9l-25.7-164.4L419.2,149.5z"/>
</svg>
