<?xml version="1.0" encoding="utf-8"?>
<!-- Generator: Adobe Illustrator 24.1.2, SVG Export Plug-In . SVG Version: 6.00 Build 0)  -->
<svg version="1.1" id="Слой_1" xmlns="http://www.w3.org/2000/svg" xmlns:xlink="http://www.w3.org/1999/xlink" x="0px" y="0px"
	 width="478.4px" height="500px" viewBox="0 0 478.4 500" enable-background="new 0 0 478.4 500" xml:space="preserve">
<g>
	<path d="M476.1,89.5c-3.9-3.9-10.3-3.9-14.3,0L331.7,219.6c-5.6,5.6-14.8,5.6-20.4,0l-8.6-8.6c0,0,0,0,0,0l-5.5-5.5l-4.7-4.7
		L432.7,60.5c3.9-3.9,3.9-10.3,0-14.3c-3.9-3.9-10.3-3.9-14.3,0L278.1,186.5l-18.9-18.9c-5.6-5.6-5.6-14.8,0-20.4L389.3,17.1
		c3.9-3.9,3.9-10.3,0-14.3c-3.9-3.9-10.3-3.9-14.3,0L245,132.9c-13.5,13.5-13.5,35.5,0,49l1.5,1.5l-20.4,20.4l49,49l20.4-20.4
		l1.5,1.5c6.8,6.7,15.6,10.1,24.5,10.1c8.9,0,17.7-3.4,24.5-10.1l130.1-130.1C480,99.9,480,93.5,476.1,89.5z"/>
	<path d="M10.7,419.3c-6.6,6.5-10.1,15.2-10.1,24.3c0,9.2,3.5,17.8,10.4,24.6c6.5,6.5,15.2,10.1,24.3,10.1c9.2,0,17.8-3.6,24.2-10.1
		l101.2-101.1l-48.9-49L10.7,419.3z"/>
	<path d="M274.5,289.9c-0.2-0.1-0.4-0.2-0.6-0.4c1.7-3.7,1.1-8.2-1.9-11.3L36.2,42.6c-2.9-2.9-7.3-3.8-11-2.2
		c-3.7,1.5-6.3,5.3-6.3,9.3v1.5c0,93.8,36.6,182.1,103,248.5l64.2,64.3c1.9,1.8,4.4,2.9,7.2,2.9c2.6,0,5.3-1.1,7.1-2.9l25.1-25.1
		l150.9,150.9c6.7,6.7,15.4,10,24.2,10s17.8-3.4,24.7-10.3c13.4-13.4,13.4-35.3,0-48.7L274.5,289.9z"/>
</g>
</svg>
