<?xml version="1.0" encoding="utf-8"?>
<!-- Generator: Adobe Illustrator 24.1.2, SVG Export Plug-In . SVG Version: 6.00 Build 0)  -->
<svg version="1.1" id="Слой_1" xmlns="http://www.w3.org/2000/svg" xmlns:xlink="http://www.w3.org/1999/xlink" x="0px" y="0px"
	 width="578px" height="500px" viewBox="0 0 578 500" enable-background="new 0 0 578 500" xml:space="preserve">
<path d="M578,188.1v168.6c0,5.6-2.2,11-6.2,14.9c-4,4-9.3,6.2-14.9,6.2s-11-2.2-14.9-6.2c-4-4-6.2-9.3-6.2-14.9V191.3L288.9,332.4
	c-1.7,1-3.6,1.5-5.5,1.5c-1.9,0-3.8-0.5-5.5-1.5L5.3,176.5c-1.6-1-3-2.4-3.9-4C0.5,170.9,0,169,0,167.1c0-1.9,0.5-3.7,1.4-5.4
	c0.9-1.6,2.3-3,3.9-4L277.9,1.9c1.7-1,3.6-1.5,5.5-1.5c1.9,0,3.8,0.5,5.5,1.5l270.9,155c5.5,3.1,10.1,7.7,13.3,13.1
	C576.3,175.5,578,181.7,578,188.1z M468.7,278L291.8,379.2c-2.5,1.6-5.4,2.4-8.4,2.4c-3,0-5.9-0.8-8.4-2.4L97.8,278
	c-2.6-1.4-5.4-2.1-8.4-2.1c-2.9,0-5.8,0.9-8.3,2.3c-2.5,1.5-4.6,3.6-6,6.1c-1.4,2.5-2.2,5.4-2.2,8.3v75.5c0,2.9,0.8,5.7,2.2,8.1
	c1.4,2.5,3.4,4.6,5.9,6L274.7,498c2.6,1.6,5.6,2.4,8.7,2.4c3.1,0,6-0.8,8.7-2.4l193.7-115.6c2.4-1.5,4.5-3.6,5.9-6
	c1.4-2.5,2.2-5.3,2.2-8.1v-75.5c0-3-0.7-5.9-2.2-8.5c-1.5-2.6-3.6-4.7-6.1-6.2s-5.5-2.3-8.4-2.3C474.2,275.7,471.3,276.5,468.7,278z
	"/>
</svg>
