<?xml version="1.0" encoding="utf-8"?>
<!-- Generator: Adobe Illustrator 24.1.2, SVG Export Plug-In . SVG Version: 6.00 Build 0)  -->
<svg version="1.1" id="Слой_1" xmlns="http://www.w3.org/2000/svg" xmlns:xlink="http://www.w3.org/1999/xlink" x="0px" y="0px"
	 width="554px" height="500px" viewBox="0 0 554 500" enable-background="new 0 0 554 500" xml:space="preserve">
<path fill="#292929" d="M277.4,500.2c-13.4,0-26.8-4.1-38.2-12.4C130.1,409,0,288.8,0,163C0,84.6,45.8,20.7,114.1,4.2
	c61.4-14.9,123,12.3,163.5,70.2c40.3-57.8,101.6-84.9,162.6-70.2C508.2,20.7,554,84.8,554,163.6c0,99.7-80.1,208.7-238.1,324
	C304.4,496,290.9,500.2,277.4,500.2z M147.1,35.2c-8.7,0-17,1-24.8,2.9C69.2,51,34.9,100,34.9,163c0,111,122.2,222.4,224.7,296.4
	c10.7,7.7,25,7.7,35.7-0.1C441.7,352.6,519,250.3,519,163.6c0-63.4-34.2-112.7-87.1-125.5c-42.3-10.3-101.1,4.8-138.8,78
	c-3,5.8-9,9.5-15.5,9.5l0,0c-6.5,0-12.5-3.7-15.5-9.5C231.1,56.2,185.9,35.2,147.1,35.2z"/>
</svg>
