<?xml version="1.0" encoding="utf-8"?>
<!-- Generator: Adobe Illustrator 24.1.2, SVG Export Plug-In . SVG Version: 6.00 Build 0)  -->
<svg version="1.1" id="Слой_1" xmlns="http://www.w3.org/2000/svg" xmlns:xlink="http://www.w3.org/1999/xlink" x="0px" y="0px"
	 width="500px" height="500px" viewBox="0 0 500 500" enable-background="new 0 0 500 500" xml:space="preserve">
<path d="M488.1,173.1C454.7,69.6,359.1,0,250,0c-39.9,0-79.8,9.7-115.4,28.1C51.6,71.6,0,156.6,0,250c0,137.8,112.1,250,250,250
	c137.8,0,250-112.2,250-250C500,224,496,198.1,488.1,173.1z M250,464.3c-118.2,0-214.3-96.1-214.3-214.3
	c59.3,0,107.1-47.9,107.1-107.1V71.4c0,78.9,64,142.9,142.9,142.9h175.5c2,11.8,3.1,23.7,3.1,35.7
	C464.3,368.2,368.2,464.3,250,464.3z"/>
<path d="M142.9,321.4c19.7,0,35.7-16,35.7-35.7s-16-35.7-35.7-35.7c-19.7,0-35.7,16-35.7,35.7S123.1,321.4,142.9,321.4z"/>
<path d="M357.2,321.4c19.7,0,35.7-16,35.7-35.7s-16-35.7-35.7-35.7c-19.7,0-35.7,16-35.7,35.7S337.4,321.4,357.2,321.4z"/>
</svg>
