<?xml version="1.0" encoding="utf-8"?>
<!-- Generator: Adobe Illustrator 24.1.2, SVG Export Plug-In . SVG Version: 6.00 Build 0)  -->
<svg version="1.1" id="Слой_1" xmlns="http://www.w3.org/2000/svg" xmlns:xlink="http://www.w3.org/1999/xlink" x="0px" y="0px"
	 width="375px" height="500px" viewBox="0 0 375 500" enable-background="new 0 0 375 500" xml:space="preserve">
<path d="M364.6,187.5h-31.3v-41.7C333.3,65.4,267.9,0,187.5,0C107.1,0,41.7,65.4,41.7,145.8v41.7H10.4c-5.8,0-10.4,4.7-10.4,10.4
	v260.4c0,23,18.7,41.7,41.7,41.7h291.7c23,0,41.7-18.7,41.7-41.7V197.9C375,192.2,370.3,187.5,364.6,187.5z M218.7,405.1
	c0.3,2.9-0.6,5.9-2.6,8.1c-2,2.2-4.8,3.5-7.8,3.5h-41.7c-3,0-5.8-1.3-7.8-3.5c-2-2.2-2.9-5.2-2.6-8.1l6.6-59.1
	c-10.7-7.8-17-20-17-33.5c0-23,18.7-41.7,41.7-41.7s41.7,18.7,41.7,41.7c0,13.5-6.4,25.7-17,33.5L218.7,405.1z M270.8,187.5H104.2
	v-41.7c0-45.9,37.4-83.3,83.3-83.3c45.9,0,83.3,37.4,83.3,83.3V187.5z"/>
</svg>
