<?xml version="1.0" encoding="utf-8"?>
<!-- Generator: Adobe Illustrator 24.1.2, SVG Export Plug-In . SVG Version: 6.00 Build 0)  -->
<svg version="1.1" id="Слой_1" xmlns="http://www.w3.org/2000/svg" xmlns:xlink="http://www.w3.org/1999/xlink" x="0px" y="0px"
	 width="500px" height="500px" viewBox="0 0 500 500" enable-background="new 0 0 500 500" xml:space="preserve">
<g>
	<path fill="#B0B0B0" d="M256.8,125c-33.6,0-60.8,27.2-60.8,60.8c0,33.6,27.2,60.8,60.8,60.8c33.6,0,60.8-27.2,60.8-60.8
		C317.6,152.2,290.4,125,256.8,125z M256.8,210.9c-13.9,0-25.1-11.2-25.1-25.1c0-13.9,11.2-25.1,25.1-25.1
		c13.9,0,25.1,11.2,25.1,25.1C281.9,199.7,270.6,210.9,256.8,210.9z"/>
	<path fill="#B0B0B0" d="M278.3,294.9c24.3-5,38.9-16.4,39.6-17.1c7.1-5.7,8.3-16.1,2.5-23.2c-5.7-7.1-16.1-8.3-23.2-2.5
		c-0.2,0.1-15.7,12.1-41.3,12.1c-25.6,0-41.5-11.9-41.6-12.1c-7.1-5.7-17.5-4.5-23.2,2.5c-5.7,7.1-4.6,17.5,2.5,23.2
		c0.8,0.6,16,12.4,40.9,17.3l-34.9,36.4c-6.3,6.6-6.2,17,0.4,23.4c3.2,3.1,7.3,4.6,11.5,4.6c4.3,0,8.7-1.7,11.9-5l32.3-34.5
		l35.6,34.7c6.4,6.4,17,6.4,23.4,0c6.4-6.4,6.4-17,0-23.4L278.3,294.9z"/>
</g>
</svg>
