<?xml version="1.0" encoding="utf-8"?>
<!-- Generator: Adobe Illustrator 24.1.2, SVG Export Plug-In . SVG Version: 6.00 Build 0)  -->
<svg version="1.1" id="Слой_1" xmlns="http://www.w3.org/2000/svg" xmlns:xlink="http://www.w3.org/1999/xlink" x="0px" y="0px"
	 width="555.6px" height="500px" viewBox="0 0 555.6 500" enable-background="new 0 0 555.6 500" xml:space="preserve">
<path d="M263.9,305.6H41.7c-7.7,0-13.9,6.2-13.9,13.9V375c0,7.7,6.2,13.9,13.9,13.9h222.2c7.7,0,13.9-6.2,13.9-13.9v-55.6
	C277.8,311.8,271.6,305.6,263.9,305.6z"/>
<path d="M518.2,132.2c6.5-11.1,9.8-23.7,9.5-36.5c-0.3-12.8-4.1-25.3-11-36.1c-6.9-10.8-16.7-19.4-28.3-25
	c-11.6-5.5-24.4-7.8-37.2-6.4c-11.2-12.7-26-21.7-42.4-25.7c-16.4-4.1-33.7-3-49.5,2.9c-15.8,6-29.4,16.7-39,30.6
	c-9.6,13.9-14.7,30.4-14.7,47.4c0,3.2,0.2,6.3,0.6,9.5c-20.1,9.3-36.3,25.2-46.1,45c-9.8,19.8-12.5,42.4-7.7,64
	c4.8,21.6,16.8,40.9,34.1,54.7c17.3,13.8,38.7,21.3,60.8,21.3c9.4-0.2,18.8-1.7,27.8-4.7v213c0,1.8,0.4,3.6,1.1,5.3
	c0.7,1.7,1.7,3.2,3,4.5c1.3,1.3,2.8,2.3,4.5,3c1.7,0.7,3.5,1.1,5.3,1.1h27.8c1.8,0,3.6-0.4,5.3-1.1c1.7-0.7,3.2-1.7,4.5-3
	c1.3-1.3,2.3-2.8,3-4.5c0.7-1.7,1.1-3.5,1.1-5.3V301c9,2.9,18.3,4.4,27.8,4.6c20.2,0.1,39.9-6.2,56.4-17.9
	c16.5-11.7,28.9-28.3,35.5-47.4c6.6-19.1,7.1-39.8,1.3-59.2C545.8,161.8,534.2,144.7,518.2,132.2z"/>
<path d="M291.7,416.7H13.9c-3.7,0-7.2,1.5-9.8,4.1c-2.6,2.6-4.1,6.1-4.1,9.8v55.6c0,3.7,1.5,7.2,4.1,9.8c2.6,2.6,6.1,4.1,9.8,4.1
	s7.2-1.5,9.8-4.1c2.6-2.6,4.1-6.1,4.1-9.8v-13.9h250v13.9c0,3.7,1.5,7.2,4.1,9.8c2.6,2.6,6.1,4.1,9.8,4.1c3.7,0,7.2-1.5,9.8-4.1
	c2.6-2.6,4.1-6.1,4.1-9.8v-55.6c0-3.7-1.5-7.2-4.1-9.8C298.9,418.1,295.3,416.7,291.7,416.7z"/>
</svg>
