<?xml version="1.0" encoding="utf-8"?>
<!-- Generator: Adobe Illustrator 24.1.2, SVG Export Plug-In . SVG Version: 6.00 Build 0)  -->
<svg version="1.1" id="Слой_1" xmlns="http://www.w3.org/2000/svg" xmlns:xlink="http://www.w3.org/1999/xlink" x="0px" y="0px"
	 width="500px" height="500px" viewBox="0 0 500 500" enable-background="new 0 0 500 500" xml:space="preserve">
<path d="M141,9.9L194.6,117c3,6,2.4,13.3-1.7,18.7l-48.4,64.6c9.8,36.7,25.7,67.1,47.4,91.3c21.8,24.3,52.3,45.3,91.4,62.9
	l63.1-47.3c5.1-3.8,11.9-4.6,17.7-2.1l125,53.6c8.5,3.7,12.8,13.3,9.9,22.1l-35.7,107.1c-2.7,8-10.7,13.1-19.1,12.1
	C299.6,482.4,188.6,433.1,112,351.5C35.4,269.8-2,170.1,0.1,53.3c0.1-7.6,5-14.2,12.2-16.6L119.4,0.9C127.8-1.9,137.1,1.9,141,9.9z"
	/>
</svg>
