<?xml version="1.0" encoding="utf-8"?>
<!-- Generator: Adobe Illustrator 24.1.2, SVG Export Plug-In . SVG Version: 6.00 Build 0)  -->
<svg version="1.1" id="Слой_1" xmlns="http://www.w3.org/2000/svg" xmlns:xlink="http://www.w3.org/1999/xlink" x="0px" y="0px"
	 width="500px" height="500px" viewBox="0 0 500 500" enable-background="new 0 0 500 500" xml:space="preserve">
<g>
	<path fill="#292929" d="M446.8,117.1h-45.3v-65c0-29.3-23.8-53.2-53.2-53.2H151.6c-29.3,0-53.2,23.8-53.2,53.2v65H53.2
		C23.8,117.1,0,141,0,170.3v177.2c0,29.3,23.8,53.2,53.2,53.2h45.3v45.3c0,29.3,23.8,53.2,53.2,53.2h196.8
		c29.3,0,53.2-23.8,53.2-53.2v-45.3h45.3c29.3,0,53.2-23.8,53.2-53.2V170.3C500,141,476.2,117.1,446.8,117.1z M126,52.2
		c0-14.1,11.5-25.6,25.6-25.6h196.8c14.1,0,25.6,11.5,25.6,25.6v65H126V52.2z M374,445.8c0,14.1-11.5,25.6-25.6,25.6H151.6
		c-14.1,0-25.6-11.5-25.6-25.6V282.5h248V445.8z M472.4,347.4c0,14.1-11.5,25.6-25.6,25.6h-45.3V268.7c0-7.6-6.2-13.8-13.8-13.8
		H112.2c-7.6,0-13.8,6.2-13.8,13.8V373H53.2c-14.1,0-25.6-11.5-25.6-25.6V170.3c0-14.1,11.5-25.6,25.6-25.6h393.7
		c14.1,0,25.6,11.5,25.6,25.6V347.4z"/>
	<path fill="#292929" d="M204.7,367.1h90.5c7.6,0,13.8-6.2,13.8-13.8s-6.2-13.8-13.8-13.8h-90.5c-7.6,0-13.8,6.2-13.8,13.8
		S197.1,367.1,204.7,367.1z"/>
	<path fill="#292929" d="M204.7,426.2h90.5c7.6,0,13.8-6.2,13.8-13.8s-6.2-13.8-13.8-13.8h-90.5c-7.6,0-13.8,6.2-13.8,13.8
		S197.1,426.2,204.7,426.2z"/>
</g>
</svg>
