<?xml version="1.0" encoding="utf-8"?>
<!-- Generator: Adobe Illustrator 24.1.2, SVG Export Plug-In . SVG Version: 6.00 Build 0)  -->
<svg version="1.1" id="Слой_1" xmlns="http://www.w3.org/2000/svg" xmlns:xlink="http://www.w3.org/1999/xlink" x="0px" y="0px"
	 width="500px" height="500px" viewBox="0 0 500 500" enable-background="new 0 0 500 500" xml:space="preserve">
<path fill-rule="evenodd" clip-rule="evenodd" fill="#B0B0B0" d="M141.1,238.5C204,211.5,246,193.7,267,185.2
	c60-24.5,72.4-28.8,80.5-28.9c1.8,0,5.8,0.4,8.4,2.5c2.2,1.7,2.8,4.1,3.1,5.7c0.3,1.7,0.6,5.4,0.3,8.4
	c-3.2,33.6-17.3,115-24.4,152.6c-3,15.9-9,21.2-14.8,21.8c-12.5,1.1-22.1-8.1-34.2-16c-19-12.2-29.7-19.9-48.2-31.8
	c-21.3-13.8-7.5-21.4,4.7-33.8c3.2-3.2,58.4-52.6,59.5-57.1c0.1-0.6,0.3-2.6-1-3.7c-1.3-1.1-3.1-0.7-4.5-0.4
	c-1.9,0.4-32.2,20.2-91,59.2c-8.6,5.8-16.4,8.7-23.4,8.5c-7.7-0.2-22.5-4.3-33.5-7.8c-13.5-4.3-24.3-6.6-23.4-14
	C125.6,246.3,130.9,242.4,141.1,238.5z"/>
</svg>
