<?xml version="1.0" encoding="utf-8"?>
<!-- Generator: Adobe Illustrator 24.1.2, SVG Export Plug-In . SVG Version: 6.00 Build 0)  -->
<svg version="1.1" id="Слой_1" xmlns="http://www.w3.org/2000/svg" xmlns:xlink="http://www.w3.org/1999/xlink" x="0px" y="0px"
	 width="500px" height="500px" viewBox="0 0 500 500" enable-background="new 0 0 500 500" xml:space="preserve">
<path fill-rule="evenodd" clip-rule="evenodd" d="M368.1,316.6c-2.3-7.6-11.2-18.6-22.7-31.8c-6.3-7.4-15.6-15.5-18.5-19.4
	c-3.9-5.3-2.9-7.4,0-12.1c-0.3,0,32.6-46.7,36-62.5c1.8-5.8,0-10-8.1-10H328c-6.8,0-9.9,3.7-11.7,7.6c0,0-13.8,33.6-33.1,55.4
	c-6.3,6.3-9.1,8.4-12.5,8.4c-1.8,0-4.2-2.1-4.2-7.9v-53.8c0-6.8-2.1-10-7.8-10h-42.2c-4.2,0-6.8,3.2-6.8,6.3
	c0,6.6,9.6,8.1,10.7,26.5v39.9c0,8.7-1.6,10.2-4.9,10.2c-9.1,0-31.3-33.9-44.6-72.5c-2.6-7.6-5.2-10.5-12-10.5h-27.1
	c-7.8,0-9.1,3.7-9.1,7.6c0,7.1,9.1,42.8,42.5,90.1c22.1,32.3,53.7,49.6,82.1,49.6c17.2,0,19.3-3.9,19.3-10.5v-24.4
	c0-7.9,1.6-9.2,7-9.2c3.9,0,10.9,2.1,26.8,17.6c18.2,18.4,21.4,26.8,31.5,26.8h26.8C366.6,328.1,370.2,324.2,368.1,316.6z"/>
</svg>
