<svg width="100" height="74" viewBox="0 0 100 74" fill="none" xmlns="http://www.w3.org/2000/svg">
<mask id="mask0_408_59383" style="mask-type:alpha" maskUnits="userSpaceOnUse" x="0" y="0" width="100" height="74">
<rect width="100" height="74" fill="#C4C4C4"/>
</mask>
<g mask="url(#mask0_408_59383)">
<path d="M54.313 6.12653C54.4403 6.05593 54.5597 5.94611 54.7109 5.94611C54.8621 5.94611 54.9894 5.94611 55.1406 5.99317C55.2918 6.04024 55.4351 6.04024 55.5863 6.04024C55.8966 5.85982 55.7295 5.6088 55.5863 5.51466C55.6381 5.41808 55.7023 5.32845 55.7772 5.24795C55.7772 5.19304 55.6818 5.10675 55.6818 5.10675L55.7454 4.98124C55.7454 4.98124 55.6579 4.70669 55.7056 4.70669C55.7618 4.66149 55.832 4.63659 55.9046 4.63609C56.016 4.63609 56.1194 4.63609 56.1035 4.54195C56.0876 4.44782 55.6499 3.75751 55.642 3.64769C55.634 3.53786 55.7613 3.39666 55.6977 3.29468C55.633 3.15269 55.5901 3.002 55.5703 2.84755C55.5226 2.47102 55.1645 2.33766 54.8382 2.24353C54.633 2.17926 54.4227 2.13203 54.2095 2.10233C53.9591 2.06657 53.7035 2.09796 53.4697 2.1932C53.2358 2.28845 53.0323 2.44403 52.8805 2.6436C52.7902 2.74913 52.7176 2.86832 52.6657 2.9966C52.5873 3.25238 52.5873 3.52526 52.6657 3.78104C52.7214 4.03991 52.8169 4.28309 52.8726 4.56549C52.9659 4.94967 52.9659 5.35013 52.8726 5.73431C52.8508 5.77828 52.8395 5.82657 52.8395 5.87551C52.8395 5.92445 52.8508 5.97274 52.8726 6.01671C52.9151 6.06129 52.9708 6.09149 53.0318 6.103C53.4413 6.26638 53.8976 6.27476 54.313 6.12653Z" fill="#DCCAAB"/>
<path d="M55.5708 5.98614C55.4561 5.96987 55.3454 5.93263 55.2445 5.87632C55.1858 5.84498 55.1364 5.79899 55.1013 5.74296C54.9748 5.41112 54.9609 5.04781 55.0615 4.70749C55.0855 4.60159 55.0855 4.49177 55.0615 4.38587C55.0058 4.17407 54.7273 4.10347 54.6159 3.92305C54.5044 3.74263 54.7273 3.67987 54.7909 3.6328C54.8546 3.58574 54.9501 3.40532 55.0535 3.23274C55.2589 3.19712 55.4689 3.19712 55.6743 3.23274C55.73 2.95818 55.1729 2.85621 55.1729 2.85621L55.0217 2.89543C54.9966 2.7642 54.9593 2.63553 54.9103 2.51105C54.9036 2.48532 54.9036 2.45833 54.9103 2.43261C54.9103 2.43261 55.1093 2.30709 55.2127 2.23649C54.9908 2.06482 54.7324 1.94464 54.4569 1.88488C54.1813 1.82513 53.8957 1.82733 53.6211 1.89134C53.3918 1.89856 53.167 1.95635 52.9633 2.06046C52.7595 2.16457 52.5821 2.31235 52.4439 2.49294C52.3057 2.67353 52.2104 2.88234 52.1648 3.10403C52.1193 3.32572 52.1247 3.55465 52.1807 3.774C52.2574 4.21679 52.3719 4.65239 52.5229 5.07618C52.5986 5.48437 52.5372 5.90576 52.3478 6.27638C52.7696 6.34698 54.3771 6.86472 54.3771 6.86472C54.5363 6.51956 54.7034 6.22932 54.8466 6.18225C54.9658 6.14731 55.0886 6.12625 55.2127 6.11949C55.3384 6.11314 55.4634 6.09741 55.5867 6.07243C55.6269 6.06025 55.6636 6.03903 55.694 6.01043C55.7244 5.98184 55.7476 5.94666 55.7618 5.90769C55.738 5.93405 55.7084 5.95479 55.6754 5.96837C55.6423 5.98195 55.6066 5.98802 55.5708 5.98614Z" fill="#6E464D"/>
<path d="M54.6007 3.42018C54.6172 3.38447 54.6257 3.34568 54.6257 3.30644C54.6257 3.2672 54.6172 3.22841 54.6007 3.19269C54.5257 3.03511 54.4618 2.87261 54.4096 2.70634C54.4096 2.63574 54.4096 2.56514 54.3698 2.49454C54.3143 2.33097 54.2279 2.17925 54.1151 2.0474C54.0859 2.00371 54.048 1.96634 54.0036 1.93758C53.9564 1.92807 53.9076 1.92807 53.8603 1.93758C53.6145 1.91818 53.3675 1.95531 53.1388 2.04603C52.91 2.13675 52.7058 2.27859 52.5422 2.46037C52.3785 2.64215 52.26 2.85889 52.1959 3.09352C52.1318 3.32815 52.1238 3.57424 52.1727 3.81241C52.2455 4.19393 52.3575 4.56716 52.507 4.92632C52.5314 5.08918 52.5714 5.2494 52.6264 5.40483C52.6981 5.49896 53.3429 5.53034 53.4225 5.40483C53.5002 5.2909 53.55 5.16074 53.568 5.02461C53.5859 4.88848 53.5716 4.75011 53.526 4.62038C53.469 4.4913 53.3997 4.36785 53.319 4.25169C53.2266 4.09138 53.1773 3.91047 53.1757 3.72612C53.1757 3.53001 53.4305 3.43587 53.5658 3.47509C53.8922 3.56923 54.0275 3.85947 54.0275 4.25954C54.0912 4.25954 54.2982 4.25954 54.3619 4.32229C54.3379 4.18735 54.3379 4.04933 54.3619 3.91438C54.3945 3.79846 54.4484 3.68944 54.5211 3.59276C54.5522 3.53741 54.5788 3.4797 54.6007 3.42018Z" fill="#262424"/>
<path d="M55.5549 4.99692L55.4832 5.04401C55.4183 5.08548 55.3488 5.1197 55.2762 5.14603L55.2046 5.26375C55.2769 5.1996 55.3606 5.14906 55.4514 5.11464C55.531 5.11464 55.5469 5.11464 55.6265 5.11464H55.6902C55.7258 5.08153 55.7484 5.03704 55.7539 4.98907H55.6265L55.5549 4.99692Z" fill="#6E464D"/>
<path d="M55.5868 5.27148L55.4116 5.23224C55.4219 5.30816 55.4433 5.38219 55.4753 5.45198C55.4753 5.45198 55.5868 5.52261 55.5947 5.50692C55.6438 5.41726 55.7025 5.33306 55.7698 5.25578C55.7698 5.25578 55.6664 5.28717 55.5868 5.27148Z" fill="#6E464D"/>
<path d="M55.3477 3.92246C55.3955 3.85183 55.4432 3.78119 55.5069 3.71841C55.5026 3.65837 55.5227 3.59912 55.5626 3.5536C55.5626 3.5536 55.6502 3.44373 55.6263 3.39665C55.5967 3.37257 55.5622 3.35518 55.525 3.34569C55.4879 3.3362 55.4491 3.33484 55.4114 3.34171C55.2953 3.33881 55.1812 3.37173 55.085 3.43589C54.9895 3.52221 54.8701 3.62424 54.7666 3.70271L55.1169 3.79689C55.1169 3.79689 55.1169 3.74195 55.1169 3.72626L55.2999 3.7655C55.2999 3.83613 55.2999 3.91461 55.2999 3.99309L55.3477 3.92246ZM54.9975 3.66348C54.9975 3.66348 55.3477 3.46728 55.3875 3.45158L55.4591 3.49867C55.3477 3.51436 55.085 3.67132 54.9975 3.62424V3.66348Z" fill="#6E464D"/>
<path d="M55.8331 4.51841C55.7615 4.51841 55.7296 4.60473 55.6659 4.65182C55.6479 4.66381 55.6272 4.67133 55.6056 4.67375C55.5839 4.67617 55.562 4.67341 55.5417 4.66571C55.5214 4.65801 55.5033 4.64559 55.4889 4.62951C55.4745 4.61343 55.4642 4.59416 55.459 4.57334C55.459 4.62043 55.459 4.66752 55.5784 4.73815C55.6978 4.80878 55.6898 4.87941 55.7456 4.91865C55.7058 4.84802 55.6659 4.70676 55.7057 4.70676C55.7627 4.66379 55.8331 4.6416 55.9048 4.64397C55.9923 4.64397 56.064 4.64397 56.0958 4.64397C55.9923 4.62043 55.8968 4.51056 55.8331 4.51841Z" fill="#6E464D"/>
<path d="M56.6369 2.84754C56.3345 2.67851 55.9971 2.57927 55.6501 2.55729C55.5865 2.14154 55.4353 0.902113 55.4353 0.627558C55.4353 0.353002 55.4353 0.266713 55.2841 0.149046C54.9101 -0.0862872 52.4351 -0.141198 51.6075 0.682469C51.504 0.784446 51.7109 1.16882 51.7428 1.29434C51.8533 1.77823 51.9068 2.2731 51.9019 2.76909C51.6677 2.84185 51.4636 2.98736 51.3202 3.18389C51.1767 3.38041 51.1017 3.61741 51.1061 3.85947C51.1061 4.33798 52.2043 4.3066 52.2998 4.31445C52.0611 3.69474 53.024 3.16131 54.0426 3.05149C54.5723 3.00838 55.1046 3.00838 55.6342 3.05149C55.6488 3.11625 55.6701 3.17935 55.6979 3.23976C56.056 3.20054 56.6767 2.98874 56.6369 2.84754Z" fill="#262424"/>
<path d="M56.5655 2.88694C56.5018 2.70644 54.9739 2.41607 53.3823 2.52594C52.2921 2.62011 51.1223 2.91834 51.0586 3.90717C51.0586 2.88694 52.3 2.56518 53.3823 2.471C55.0535 2.35329 56.5018 2.70644 56.5655 2.88694Z" fill="#484949"/>
<path d="M55.5317 2.2357C55.4441 1.72581 55.3247 0.839386 55.3247 0.666808C55.3247 0.49423 55.3247 0.251052 55.0382 0.172608C54.8056 0.105593 54.564 0.0738519 54.3217 0.0784744C54.0152 0.0861169 53.7095 0.112314 53.4062 0.156919C53.8604 0.0935085 54.3213 0.0935085 54.7755 0.156919C54.8232 0.415786 55.0382 1.53754 55.1178 2.15725C55.2577 2.17243 55.3961 2.19866 55.5317 2.2357Z" fill="#484949"/>
<path d="M56.1676 28.6401C55.9918 29.1149 55.8821 29.611 55.8413 30.1148C55.8413 30.4364 56.3109 30.8051 56.4382 31.2052C56.4581 31.3798 56.4581 31.5561 56.4382 31.7308C55.8969 31.2882 55.4012 30.7942 54.958 30.256C54.8835 29.6425 54.6656 29.0545 54.3214 28.5381L54.0269 28.8676C53.8598 28.6165 53.3823 27.9498 53.3823 27.9498C53.8929 27.4622 54.5283 27.1206 55.2206 26.9614C55.4893 27.1598 55.7126 27.4119 55.8758 27.7011C56.039 27.9904 56.1384 28.3103 56.1676 28.6401Z" fill="#262424"/>
<path d="M55.8333 17.0303C57.3271 17.9094 58.7481 18.9035 60.0829 20.0033C60.4728 20.3406 61.5074 21.9409 60.823 22.6155C59.2314 24.1844 57.3772 28.0282 56.5496 29.1029C55.9766 28.6087 54.7272 27.2986 55.1649 26.4907C55.4275 25.9965 55.8174 25.5336 56.096 25.0473C56.7294 24.1232 57.2427 23.1243 57.6239 22.0742C57.7592 21.533 54.6237 17.6657 54.5839 17.6108C54.5441 17.5559 55.7936 17.0303 55.8333 17.0303Z" fill="#262424"/>
<path d="M44.2304 33.7703C43.3647 33.7703 42.5185 34.0234 41.7987 34.4975C41.079 34.9715 40.518 35.6454 40.1867 36.4337C39.8554 37.2221 39.7687 38.0896 39.9376 38.9265C40.1065 39.7634 40.5234 40.5322 41.1355 41.1356C41.7476 41.7389 42.5275 42.1499 43.3765 42.3163C44.2256 42.4828 45.1056 42.3974 45.9054 42.0708C46.7051 41.7443 47.3887 41.1913 47.8697 40.4818C48.3506 39.7723 48.6073 38.9381 48.6073 38.0848C48.6052 36.9412 48.1434 35.845 47.323 35.0363C46.5026 34.2276 45.3906 33.7724 44.2304 33.7703ZM48.2094 38.1005H45.2252C45.2262 37.9599 45.1964 37.8207 45.1376 37.6926L47.7478 36.21C48.0659 36.7851 48.2328 37.4297 48.2333 38.0848L48.2094 38.1005ZM44.2304 39.0653V41.9992C43.5732 41.9924 42.928 41.8253 42.3523 41.5128L43.7688 38.9634C43.9006 39.0251 44.0447 39.0572 44.1906 39.0575L44.2304 39.0653ZM44.3179 39.0653C44.4531 39.0606 44.5858 39.0286 44.7079 38.9712L46.1562 41.5128C45.5806 41.8253 44.9353 41.9924 44.2782 41.9992L44.3179 39.0653ZM44.2782 38.8222C44.1318 38.8222 43.9887 38.7794 43.867 38.6992C43.7453 38.6191 43.6504 38.5051 43.5944 38.3718C43.5384 38.2385 43.5237 38.0918 43.5523 37.9503C43.5808 37.8088 43.6513 37.6788 43.7548 37.5768C43.8583 37.4747 43.9902 37.4053 44.1338 37.3771C44.2773 37.349 44.4261 37.3634 44.5614 37.4186C44.6966 37.4738 44.8122 37.5674 44.8935 37.6873C44.9748 37.8073 45.0182 37.9483 45.0182 38.0926C45.0174 38.1919 44.996 38.2899 44.9554 38.3807C44.9147 38.4715 44.8557 38.5532 44.782 38.6207C44.7082 38.6883 44.6213 38.7403 44.5264 38.7736C44.4316 38.8069 44.3309 38.8207 44.2304 38.8143L44.2782 38.8222ZM43.4267 38.5868L40.8483 40.0537C40.5161 39.4875 40.3328 38.8484 40.3151 38.1946H43.2993C43.2991 38.3267 43.3262 38.4575 43.3789 38.579L43.4267 38.5868ZM45.2729 38.1946H48.2571C48.2395 38.8484 48.0562 39.4875 47.724 40.0537L45.1456 38.5868C45.2005 38.4605 45.2276 38.3242 45.2252 38.1868L45.2729 38.1946ZM44.2861 34.1783C44.9853 34.1791 45.672 34.3615 46.2769 34.7071C46.8819 35.0528 47.3837 35.5495 47.7319 36.1472L45.1535 37.6141C45.0796 37.4829 44.9762 37.3702 44.8511 37.2847L46.3313 34.7509L46.2597 34.7117L44.7795 37.2376C44.6456 37.1627 44.4957 37.1197 44.3418 37.1121V34.1939H44.2543V37.1042C44.1004 37.1118 43.9506 37.1548 43.8166 37.2297L42.3364 34.7038L42.2648 34.7431L43.745 37.2768C43.6199 37.3624 43.5165 37.4751 43.4426 37.6063L40.8642 36.1394C41.2056 35.553 41.6949 35.0636 42.2847 34.7187C42.8745 34.3737 43.5447 34.1848 44.2304 34.1704L44.2861 34.1783ZM40.8005 36.2178L43.3312 37.6533C43.2724 37.7815 43.2425 37.9206 43.2436 38.0613H40.2594C40.2638 37.4141 40.4305 36.7781 40.7448 36.21L40.8005 36.2178ZM40.896 40.14L43.4824 38.6731C43.5627 38.7844 43.6657 38.8779 43.7848 38.9477L42.2966 41.4893C41.7007 41.1646 41.1993 40.6946 40.8403 40.1243L40.896 40.14ZM46.2836 41.4814L44.7954 38.9398C44.9145 38.8701 45.0175 38.7766 45.0978 38.6653L47.6842 40.1322C47.321 40.691 46.8199 41.1498 46.2279 41.4657L46.2836 41.4814Z" fill="#484949"/>
<path d="M44.2308 38.4145C44.4155 38.4145 44.5652 38.267 44.5652 38.0849C44.5652 37.9029 44.4155 37.7553 44.2308 37.7553C44.0462 37.7553 43.8965 37.9029 43.8965 38.0849C43.8965 38.267 44.0462 38.4145 44.2308 38.4145Z" fill="#484949"/>
<path d="M40.5381 23.7066C41.5488 22.9219 43.204 23.2829 44.5171 23.6125C45.0067 23.0465 45.5684 22.5453 46.1883 22.1214C44.5648 21.9644 42.5037 21.6505 40.5381 23.7066Z" fill="#262424"/>
<path d="M58.2843 15.1398C58.7664 15.202 59.2376 15.3287 59.6849 15.5163C59.9866 15.6879 60.226 15.9486 60.3693 16.2615C60.3658 16.5128 60.3031 16.7599 60.1863 16.9832C60.1147 17.0773 59.6053 17.5872 59.3905 17.5245C59.1756 17.4617 59.287 17.3911 59.3268 17.3048C59.4303 17.093 59.5019 16.8028 59.2552 16.7087C59.0085 16.6145 57.7432 16.4576 57.7432 16.4576C57.8668 15.9977 58.0486 15.555 58.2843 15.1398Z" fill="#BBBCBE"/>
<path d="M55.8969 30.4992C55.8492 30.4051 55.8253 30.2717 55.7616 30.1462C55.7982 29.7454 55.8728 29.3488 55.9845 28.9617C55.9114 29.2129 55.7986 29.4511 55.6502 29.6677L55.7218 30.1305C55.6324 29.9146 55.5058 29.7156 55.3477 29.5422C55.4352 29.882 55.5551 30.213 55.7059 30.5306C55.8535 30.6487 56.0076 30.7587 56.1676 30.86C56.0603 30.7532 55.9691 30.6316 55.8969 30.4992Z" fill="#484949"/>
<path d="M60.9345 21.784C60.7674 20.9996 59.6533 20.0661 59.0883 19.5484C58.262 18.755 57.3399 18.0648 56.3428 17.4931C57.059 17.9638 59.0883 19.8465 58.9212 19.8465C59.0414 19.8088 59.1636 19.7774 59.2872 19.7523C59.5636 20.0395 59.8115 20.352 60.0273 20.6858C59.7707 20.4247 59.458 20.2237 59.1122 20.0975C59.5313 20.6115 59.9888 21.094 60.4809 21.5409V21.5801C60.4809 21.6272 60.4809 21.6978 60.4093 21.6821C60.0389 21.5338 59.6352 21.4851 59.2395 21.5409C59.5896 21.5409 60.7356 21.7134 60.6321 22.2312C60.5539 22.4205 60.4523 22.5997 60.3297 22.7646C60.2104 22.9842 60.083 23.196 59.9557 23.4078C59.8284 23.6196 59.6056 23.9805 59.4146 24.2472C60.4809 22.796 61.0619 22.4508 60.9345 21.784Z" fill="#484949"/>
<path d="M61.372 33.5114C61.83 33.7399 62.3172 33.9061 62.8204 34.0056C63.263 33.9388 63.7014 33.8471 64.1335 33.7311C64.377 33.7384 64.6193 33.7673 64.8576 33.8174C64.2129 34.1983 63.5489 34.5465 62.8681 34.8607C62.2402 34.8645 61.6218 35.0122 61.0617 35.2921L61.3561 35.6216C61.0776 35.7549 60.3534 36.1472 60.3534 36.1472C59.9168 35.5922 59.6417 34.9305 59.5576 34.2331C59.7912 33.9933 60.0736 33.805 60.3864 33.6806C60.6991 33.5563 61.0351 33.4986 61.372 33.5114Z" fill="#262424"/>
<path d="M59.3428 20.4348V19.9876C59.6823 19.9876 60.0298 19.9876 60.3853 19.9876L60.5445 19.8621L60.9344 19.2346L60.7195 19.1483C60.2527 19.1483 59.7937 19.1483 59.3428 19.1483V17.399C59.4078 17.334 59.4519 17.2515 59.4695 17.1619C59.4871 17.0723 59.4775 16.9796 59.4417 16.8954C59.406 16.8111 59.3458 16.7392 59.2688 16.6887C59.1917 16.6381 59.1012 16.6111 59.0086 16.6111C58.916 16.6111 58.8254 16.6381 58.7484 16.6887C58.6713 16.7392 58.6111 16.8111 58.5754 16.8954C58.5397 16.9796 58.53 17.0723 58.5476 17.1619C58.5652 17.2515 58.6093 17.334 58.6743 17.399V19.1953C53.9871 19.3758 50.5253 20.9839 47.931 25.2983C47.6525 25.769 47.3899 26.2475 47.1352 26.7417C46.6775 27.7289 46.3048 28.7523 46.0211 29.801C45.7367 30.8328 45.5162 31.8807 45.3606 32.9388C45.2174 33.935 45.0343 36.0766 45.0343 36.0766C44.7187 36.7401 44.3681 37.3868 43.9839 38.0141L44.2783 38.1946C44.7418 37.6017 45.167 36.9808 45.5516 36.3354C45.5516 36.3354 45.8461 33.5742 45.9256 33.0329C46.0685 31.9739 46.2839 30.9256 46.5702 29.8952C46.8797 28.8918 47.2737 27.9157 47.748 26.977C47.9744 26.5036 48.2268 26.0427 48.504 25.5964C50.4856 22.4116 53.7961 20.2073 58.7221 20.0112V20.4426C55.7964 20.5261 53.0215 21.741 50.9973 23.8249C48.973 25.9088 47.862 28.6942 47.9044 31.5791C47.9467 34.4639 49.139 37.2165 51.2236 39.2418C53.3081 41.2671 56.1175 42.4024 59.0444 42.4024C61.9713 42.4024 64.7806 41.2671 66.8652 39.2418C68.9497 37.2165 70.142 34.4639 70.1844 31.5791C70.2267 28.6942 69.1157 25.9088 67.0915 23.8249C65.0672 21.741 62.2924 20.5261 59.3667 20.4426L59.3428 20.4348ZM58.7459 31.0797C58.6795 31.1344 58.6318 31.208 58.6093 31.2905C58.5867 31.3729 58.5905 31.4602 58.6201 31.5405C58.6496 31.6207 58.7035 31.6901 58.7745 31.7391C58.8454 31.7881 58.9299 31.8143 59.0165 31.8143C59.1031 31.8143 59.1877 31.7881 59.2586 31.7391C59.3295 31.6901 59.3834 31.6207 59.413 31.5405C59.4425 31.4602 59.4463 31.3729 59.4238 31.2905C59.4013 31.208 59.3535 31.1344 59.2871 31.0797V30.4992C59.5044 30.5641 59.6909 30.7038 59.8125 30.8929C59.934 31.082 59.9826 31.3079 59.9493 31.5294C59.916 31.7508 59.8031 31.9531 59.6312 32.0994C59.4592 32.2456 59.2397 32.3261 59.0125 32.3261C58.7854 32.3261 58.5659 32.2456 58.3939 32.0994C58.222 31.9531 58.109 31.7508 58.0758 31.5294C58.0425 31.3079 58.091 31.082 58.2126 30.8929C58.3342 30.7038 58.5206 30.5641 58.738 30.4992L58.7459 31.0797ZM59.0006 41.7952C56.2491 41.7705 53.6165 40.6858 51.6656 38.7729C49.7148 36.86 48.6005 34.2708 48.561 31.5586C48.5215 28.8465 49.5599 26.2268 51.4543 24.2595C53.3486 22.2922 55.9485 21.1334 58.6982 21.0309L58.738 30.1932L56.3506 21.3839H56.2631L58.6504 30.1932C58.5732 30.2174 58.4986 30.2489 58.4276 30.2874L53.7802 22.4194L53.7085 22.4586L58.3321 30.358C58.2638 30.4015 58.1998 30.4514 58.1411 30.507L51.5997 24.0589L51.536 24.1216L58.0934 30.5933C58.037 30.6512 57.9864 30.7142 57.9422 30.7816L49.9126 26.2004L49.8728 26.271L57.8865 30.8286C57.8475 30.8986 57.8155 30.9722 57.791 31.0483L48.8462 28.695V28.7812L57.791 31.1346C57.7835 31.2128 57.7835 31.2916 57.791 31.3699H48.4801V31.4562H57.7432C57.7357 31.5345 57.7357 31.6133 57.7432 31.6915L48.7985 34.0449V34.1311L57.7432 31.7778C57.7678 31.8539 57.7998 31.9274 57.8387 31.9975L49.8728 36.5708L49.9126 36.6414L57.9342 32.0759C57.9784 32.1433 58.029 32.2063 58.0854 32.2642L51.536 38.7201L51.5997 38.7829L58.1491 32.3269C58.2081 32.3798 58.2721 32.4271 58.3401 32.4681L53.7085 40.3832L53.7802 40.4224L58.4117 32.5152C58.4827 32.5536 58.5574 32.5851 58.6345 32.6093L56.2471 41.4343H56.3347L58.7221 32.6093H58.9608V41.7952H59.0483V32.6564H59.2871L61.6745 41.4814H61.762L59.3746 32.6564C59.4518 32.6322 59.5264 32.6006 59.5974 32.5623L64.229 40.4695L64.3006 40.4302L59.685 32.476C59.753 32.4349 59.817 32.3877 59.876 32.3348L66.4254 38.7907L66.4891 38.728L59.9237 32.2642C59.9802 32.2064 60.0308 32.1433 60.0749 32.0759L68.0966 36.6414L68.1364 36.5708L60.1147 32.0053C60.1537 31.9353 60.1856 31.8617 60.2102 31.7857L69.155 34.139V34.0527L60.2102 31.6994C60.2177 31.6211 60.2177 31.5423 60.2102 31.464H69.5211V31.3777H60.2659C60.2734 31.2995 60.2734 31.2207 60.2659 31.1424L69.2107 28.7891V28.7028L60.2659 31.0561C60.2414 30.98 60.2094 30.9065 60.1704 30.8365L68.1841 26.2789L68.1443 26.2083L60.0749 30.7659C60.0307 30.6985 59.9801 30.6355 59.9237 30.5776L66.4652 24.1295L66.4015 24.0667L59.8601 30.5149C59.8068 30.4573 59.7482 30.4048 59.685 30.358L64.3006 22.4665L64.229 22.4272L59.5974 30.3188C59.5265 30.2803 59.4518 30.2488 59.3746 30.2246L61.762 21.4153H61.6745L59.2871 30.2011L59.3269 21.0545C62.0783 21.1584 64.6792 22.3199 66.5727 24.2904C68.4663 26.2609 69.5021 28.8838 69.4584 31.5977C69.4147 34.3115 68.295 36.9007 66.339 38.811C64.383 40.7212 61.7461 41.8009 58.9926 41.8187L59.0006 41.7952Z" fill="#484949"/>
<path d="M52.3237 6.39322C52.3237 6.29909 52.5147 5.54602 52.5147 5.54602C53.0505 5.91808 53.6897 6.11806 54.3451 6.11867C54.4782 6.44603 54.6406 6.76105 54.8305 7.06C56.051 8.35768 56.7327 10.0599 56.7404 11.8294C55.0898 10.1655 53.6103 8.34455 52.3237 6.39322Z" fill="white"/>
<path d="M59.7644 26.271C59.7122 25.3811 59.4766 24.511 59.0721 23.7138C58.6424 22.8744 56.8359 19.87 56.3903 19.1248C56.1668 18.7218 56.0059 18.2882 55.9128 17.8383C55.9868 17.8305 56.0615 17.8305 56.1356 17.8383L56.6529 16.6538C56.7563 16.6538 57.9659 16.7871 58.332 16.8342C58.523 16.7479 58.7936 16.0497 58.8652 15.8301C58.9296 15.5888 58.9042 15.3328 58.7936 15.1084C58.2286 15.0378 57.6795 14.8338 57.0428 14.7162C57.0428 14.7162 57.1542 11.4372 56.4619 10.1115C55.9764 9.17015 54.5758 7.16982 53.0957 6.52657C52.8285 6.40369 52.5942 6.22104 52.4113 5.99315C52.4202 5.89999 52.4389 5.80798 52.467 5.7186C51.9895 5.99315 52.1805 6.33831 51.9099 6.71484C51.9099 6.85604 52.0452 7.00509 52.0452 7.00509C51.6355 7.58199 51.2888 8.19989 51.0107 8.84853C50.5491 10.4174 51.8065 14.1828 51.7348 15.5869C51.6553 16.6302 50.7799 17.3754 50.2865 17.8853C49.7931 18.3952 46.3075 19.4542 45.4162 19.8151C44.5249 20.1759 41.7794 21.5958 40.7051 23.5333C42.9254 21.18 45.2252 22.035 47.0158 21.9644C48.7464 21.9155 50.4251 21.3703 51.8463 20.3956C52.1385 20.9581 52.6318 21.3941 53.2309 21.6193C53.8517 22.4037 57.2099 25.5415 57.2099 25.5415C57.2099 25.5415 56.8518 27.683 59.6849 35.1353C59.6849 35.2294 62.4622 34.4606 62.8044 33.8017C61.5351 31.3994 60.5165 28.8762 59.7644 26.271Z" fill="#262424"/>
<path d="M52.3316 6.47165C53.0797 6.69924 55.0055 7.08379 55.0055 7.08379L54.7827 7.42125C54.3291 7.29568 52.2998 6.84835 52.2998 6.84835L52.3316 6.47165Z" fill="#262424"/>
<path d="M54.9099 6.67569C54.9795 6.61381 55.0606 6.56584 55.1487 6.53442C55.1701 6.80273 55.2291 7.06683 55.3239 7.31922C55.1834 7.29954 55.0449 7.26803 54.9099 7.22504L54.7905 6.93467L54.9099 6.67569Z" fill="#262424"/>
<path d="M54.7113 6.88744L54.9263 6.95807C54.8712 7.18437 54.8419 7.416 54.8387 7.64869C54.7273 7.64869 54.4009 7.33477 54.4009 7.33477C54.4566 7.13073 54.5362 6.85605 54.584 6.8482C54.6317 6.84035 54.7113 6.88744 54.7113 6.88744Z" fill="#262424"/>
<path d="M58.6505 24.2393C58.7504 24.7998 58.7504 25.3732 58.6505 25.9337C58.6505 26.0514 58.7221 26.5534 58.6505 26.6397C58.8249 26.2389 58.9065 25.8047 58.8893 25.3689C58.8893 25.1963 58.8893 24.7492 59.0643 24.6864C59.4702 26.4907 59.1758 28.4126 59.7249 30.1776C59.6532 28.6087 59.6214 25.6984 59.4384 24.9218C59.1255 23.8832 58.6561 22.8968 58.0457 21.9958C57.8706 21.784 55.9289 18.6305 55.9368 18.0736C55.8493 19.4934 58.3163 23.3607 58.6505 24.2393Z" fill="#484949"/>
<path d="M59.5576 26.977C59.9714 27.9027 61.8893 32.6721 62.0644 32.978C62.2511 33.2301 62.4238 33.492 62.5817 33.7625C62.2496 33.8111 61.9146 33.8373 61.5789 33.8409C61.1333 33.8409 60.7832 33.888 61.1651 33.4487C61.5471 33.0094 59.8202 27.5654 59.5576 26.977Z" fill="#484949"/>
<path d="M63.2582 34.3354C63.2582 34.0999 63.099 34.1548 62.7886 34.0685C63.5289 34.2255 63.903 33.7468 64.3807 33.8723C64.1498 34.045 63.4891 34.1784 63.2582 34.3354Z" fill="#484949"/>
<path d="M53.8118 7.18549L54.2733 8.14251L53.4775 8.37C54.2722 8.68282 54.9868 9.16505 55.5701 9.78212C56.1535 10.3992 56.5911 11.1358 56.8517 11.9392C56.3822 9.41331 55.8808 9.06815 53.8118 7.18549Z" fill="#484949"/>
<path d="M58.7697 15.1868C58.7139 15.1868 57.56 14.928 57.1303 14.8574C56.8995 14.8574 56.6767 14.8574 56.4459 14.8574H56.1435C56.0499 14.8644 55.9561 14.8454 55.873 14.8024C55.8013 14.7554 55.8093 14.6612 55.8172 14.5828C55.8172 14.2141 55.6979 14.3082 55.4432 14.1043C55.1886 13.9003 54.9817 13.5473 54.6474 13.2728C53.9471 12.6374 53.6686 12.0333 52.459 10.7233C53.207 11.5078 54.3609 13.8611 54.9578 14.2141C55.0612 14.2769 54.8703 14.5122 54.8305 14.5671C54.6793 14.7711 54.353 15.0299 55.1408 15.0064C55.3 15.0064 55.674 14.8338 55.7775 14.9515C55.8809 15.0691 55.7775 15.3594 55.6183 15.5006C55.4591 15.6418 55.5308 15.6183 55.6183 15.6496H55.6581C55.9366 15.6496 56.0958 15.4378 56.3266 15.3516C56.5446 15.2961 56.7707 15.2775 56.995 15.2966C57.6322 15.2838 58.2685 15.3497 58.889 15.4928C58.8015 15.4378 58.7537 15.1633 58.7697 15.1868ZM55.6422 14.5436C55.6422 14.3004 54.9976 14.6848 54.8464 14.8652C54.9657 14.575 55.5865 14.1592 55.7138 14.3004C55.8411 14.4416 55.7058 14.4808 55.6342 14.5436H55.6422ZM55.8332 15.4771C55.9035 15.4172 55.9609 15.344 56.0019 15.2617C56.0429 15.1795 56.0667 15.09 56.0719 14.9986C56.0719 14.928 55.9685 14.826 55.9685 14.826C55.9685 14.826 56.048 14.826 56.0639 14.826C56.0799 14.826 56.4221 14.9044 56.3743 15.0378C56.3266 15.1711 55.8252 15.4771 55.8252 15.4771H55.8332Z" fill="#484949"/>
<path d="M54.1145 12.7708C53.8438 11.3901 54.1145 9.2486 52.9204 8.72302C53.7165 9.1074 53.8996 11.4215 53.7165 11.9549C53.8806 12.2108 54.0142 12.4846 54.1145 12.7708Z" fill="#484949"/>
<path d="M56.9475 14.7083L56.3345 14.6534C56.441 13.3961 56.3605 12.1303 56.0957 10.8959C56.6517 12.0925 56.942 13.3923 56.9475 14.7083Z" fill="#484949"/>
<path d="M45.846 34.1939C46.0039 35.1301 46.0891 36.0768 46.1007 37.0258C46.124 37.4353 46.2323 37.8358 46.419 38.2024C46.5782 38.3907 48.886 41.8423 49.1168 41.9992C49.3476 42.156 49.5704 42.2188 49.6977 42.3286C49.7352 42.3645 49.7623 42.4096 49.7763 42.4592C49.7903 42.5088 49.7906 42.5612 49.7773 42.611C49.4692 42.6884 49.1463 42.6884 48.8382 42.611C48.5431 42.2614 48.277 41.8889 48.0424 41.4971C47.8833 41.5756 47.74 41.6226 47.74 41.403C47.74 41.1833 45.2412 38.0926 45.2253 37.92C45.2094 37.7475 45.3367 37.5592 45.3208 37.418C45.2412 36.7042 44.1987 35.802 44.1987 35.802C44.7973 35.3176 45.3488 34.7793 45.846 34.1939Z" fill="#262424"/>
<path d="M35.97 35.8805C35.4297 36.6914 34.7384 37.3942 33.9328 37.9514C33.2521 38.4474 32.6809 39.0746 32.2536 39.7949C31.7974 40.5321 31.4365 41.3227 31.1793 42.1482C31.243 42.3208 31.609 42.3835 31.6409 42.4306C31.6727 42.4777 31.7045 42.6659 31.6409 42.6659C31.251 42.6885 30.8599 42.6568 30.479 42.5718C30.479 42.4149 30.4312 42.2423 30.5586 42.0697C30.9235 41.3793 31.1912 40.6429 31.3544 39.8811C31.3544 39.8027 31.2509 39.7792 31.4499 39.6458C32.4566 38.7811 33.1981 37.6563 33.5906 36.3982C33.6861 35.7707 33.7577 34.139 34.2272 33.9194C34.4754 33.793 34.7452 33.7132 35.023 33.684L35.97 35.8805Z" fill="#262424"/>
<path d="M37.4026 37.8887C37.2254 37.9135 37.0557 37.9754 36.9048 38.0701C36.7538 38.1647 36.6251 38.2901 36.5272 38.4378L36.3919 38.5947C36.3919 39.0183 36.3919 40.0145 36.3283 40.0537C36.2646 40.0929 36.0895 40.3126 36.3283 40.3989C37.0909 40.835 37.7331 41.4492 38.1984 42.1874C38.241 42.3572 38.3496 42.5037 38.5008 42.5953C38.7555 42.5953 39.5513 42.5953 39.5513 42.5953C39.408 42.3129 39.3443 42.0854 39.1056 42.0697C38.9023 42.0707 38.7052 42.0013 38.5485 41.8736C38.0967 41.3295 37.687 40.7526 37.323 40.1479C37.3099 39.3214 37.5274 38.5074 37.9517 37.7945C37.7368 37.9593 37.6413 37.8965 37.4026 37.8887Z" fill="#262424"/>
<path d="M45.6874 35.8256C45.6217 35.3914 45.5792 34.9541 45.56 34.5155C45.1548 34.974 44.7071 35.3942 44.2227 35.7707C44.6048 36.1001 45.4486 37.0101 45.3371 37.4964C45.6358 36.9921 45.7589 36.4053 45.6874 35.8256Z" fill="#262424"/>
<path d="M48.0982 31.3778C48.0616 31.2151 47.9941 31.0607 47.8992 30.9228C47.816 30.8354 47.7077 30.7752 47.5889 30.7502C45.7745 31.1424 45.7983 31.9033 43.8964 32.2485C45.0503 32.8917 45.8859 33.99 44.8911 35.3863C44.0195 36.338 43.2215 37.3528 42.5037 38.4221C42.4401 39.0732 42.3844 40.3283 42.3525 40.4224C42.3207 40.5165 42.1377 40.9637 42.1377 40.9637C41.8512 41.0107 41.8193 41.2147 41.9467 41.2147C41.6345 41.4912 41.2866 41.726 40.9121 41.9128C40.5461 41.9128 40.3551 41.9128 40.2118 42.0776C40.1094 42.225 40.029 42.3861 39.9731 42.5561C39.9253 42.6502 39.8856 42.6894 40.0288 42.6738C40.3997 42.6506 40.7647 42.5713 41.1111 42.4384C41.3021 42.2972 42.257 41.5598 42.4799 41.4186C42.6876 41.2632 42.8339 41.0413 42.8937 40.7911C42.9892 40.5244 43.2359 37.7867 43.7611 37.3082C45.8779 35.3784 46.3793 33.3859 48.8144 32.2563C48.7303 32.2184 48.6525 32.1682 48.5836 32.1073C48.3576 31.9121 48.1898 31.6599 48.0982 31.3778Z" fill="#262424"/>
<path d="M52.1647 32.3269C51.6531 31.9833 51.1785 31.589 50.7482 31.1503C50.7542 31.0252 50.7268 30.9007 50.6686 30.7894C50.3163 30.4942 49.9188 30.256 49.4908 30.0834C49.3224 30.0163 49.134 30.0163 48.9656 30.0834C48.9099 30.0834 48.9178 30.1854 48.886 30.2482C48.8111 30.427 48.7758 30.6196 48.7826 30.813C48.7632 30.9114 48.7632 31.0126 48.7826 31.111C48.8268 31.2187 48.9049 31.3094 49.0054 31.3699C49.1051 31.4298 49.2121 31.4772 49.3237 31.5111L49.4829 31.566L49.6341 31.6366C49.6895 31.6553 49.7353 31.6948 49.7614 31.7464C49.7614 31.8406 49.7136 31.8641 49.65 31.9033L49.3874 32.0681C49.9046 32.1936 50.5413 32.4603 50.7243 32.4995C50.9134 32.5328 51.1052 32.5485 51.2973 32.5466C51.5029 32.6042 51.7133 32.6436 51.926 32.6642C51.9896 32.6642 52.2363 32.5858 52.2523 32.5074C52.2682 32.4289 52.1647 32.3269 52.1647 32.3269Z" fill="#6E464D"/>
<path d="M35.4448 34.6411C34.7206 35.2059 35.0389 35.7785 34.458 36.9238C33.7816 38.2495 33.0892 38.2887 32.5242 39.3634C32.4877 39.4319 32.4558 39.5026 32.4287 39.5752C32.8346 39.1359 33.5349 38.1083 33.9328 37.9593C34.7385 37.402 35.4297 36.6993 35.97 35.8883L35.4448 34.6411Z" fill="#262424"/>
<path d="M49.9441 31.6131C49.9441 31.519 49.9441 31.4248 49.9441 31.3386C50.0476 30.9777 50.4136 31.3386 50.5648 31.1895C50.7161 31.0405 50.5648 30.9071 50.4136 30.7894C50.0473 30.4382 49.6072 30.1704 49.1244 30.005C48.9973 29.9949 48.8696 29.9949 48.7425 30.005C48.4679 29.93 48.1803 29.9139 47.8989 29.9579C47.7079 30.005 47.1907 30.46 47.2464 30.5541C47.3021 30.6482 47.8512 30.6326 47.8512 30.6326L47.5806 30.6875C47.6995 30.7125 47.8077 30.7727 47.891 30.86C47.9859 30.9979 48.0534 31.1523 48.0899 31.315C48.1823 31.5775 48.3412 31.8125 48.5515 31.9975C48.6203 32.0584 48.6981 32.1086 48.7823 32.1465C48.9255 32.0785 49.074 32.0184 49.2279 31.9661H49.403L49.6656 31.8014C49.7929 31.8406 49.9202 31.7465 49.9441 31.6131Z" fill="#262424"/>
<path d="M45.3606 35.0725C46.3474 33.7076 44.7479 32.225 43.8964 32.2642C43.1915 32.3798 42.4781 32.4375 41.7636 32.4368C41.0633 32.4368 37.2753 32.4995 36.5273 32.5309C35.8357 32.6252 35.1762 32.8777 34.6014 33.2683C33.2963 33.6291 31.9594 33.9743 30.9169 33.1114C29.8744 32.2485 29.5561 31.1817 30.4553 30.1227C30.5598 30.0207 30.6556 29.9105 30.7418 29.7932C30.7418 29.7932 30.5508 29.6991 30.1688 30.107C29.8113 30.6081 29.6662 31.227 29.7643 31.832C29.8624 32.4369 30.1959 32.9804 30.6941 33.3467C32.6279 34.7666 34.6731 33.6056 34.7128 33.8174C34.9595 35.2373 35.8986 36.2649 36.2169 36.9552C36.3788 37.4809 36.4462 38.0304 36.4159 38.579C37.1241 38.0063 37.5061 38.1319 37.9358 37.7945C38.0878 37.34 38.1402 36.8588 38.0894 36.3828C38.0387 35.9067 37.8859 35.4468 37.6414 35.0333C38.8749 34.6411 40.3153 37.0572 42.6867 36.6806C42.631 36.8846 42.5515 37.6612 42.4798 38.3829C43.4507 36.8061 44.8115 35.8256 45.3606 35.0725Z" fill="#262424"/>
<path d="M50.4297 31.1818C50.4297 31.017 50.366 30.9149 50.3024 30.9071C50.2032 30.9118 50.1047 30.9249 50.0078 30.9463C50.0874 31.0928 50.1617 31.1687 50.2307 31.1739C50.2944 31.1896 50.4058 31.2132 50.4297 31.1818Z" fill="#040706"/>
<path d="M51.3772 32.5625C51.219 32.4464 51.037 32.366 50.8438 32.327C50.7802 32.327 50.4458 32.1544 50.3662 32.225C50.4219 32.3427 50.6607 32.382 50.8279 32.3741C50.9951 32.3663 51.1782 32.5468 51.3613 32.586H51.417L51.3772 32.5625Z" fill="#040706"/>
<path d="M50.5014 30.8051C50.5752 30.9401 50.6416 31.0789 50.7004 31.2209C50.7592 31.3191 50.8315 31.4088 50.9153 31.4876C51.1009 31.6735 51.3064 31.8392 51.528 31.9818C51.7243 32.1054 51.929 32.2155 52.1408 32.3112C51.641 31.9709 51.1771 31.582 50.7561 31.1503C50.7621 31.0252 50.7347 30.9007 50.6765 30.7894C50.3242 30.4942 49.9267 30.256 49.4987 30.0834C49.4062 30.0725 49.3127 30.0725 49.2202 30.0834C49.6328 30.2056 50.015 30.4113 50.3423 30.6874C50.3997 30.7206 50.4531 30.7601 50.5014 30.8051Z" fill="#DCCAAB"/>
<path d="M22.0679 41.9286V42.36H20.5156V39.9282H22.044V40.3911H21.0092V40.9166H21.9565V41.3716H21.0092V41.9286H22.0679Z" fill="black"/>
<path d="M22.4575 41.8344L22.8794 41.5912C22.9195 41.7075 22.9974 41.8074 23.1011 41.8755C23.2047 41.9436 23.3283 41.976 23.4526 41.9678C23.7471 41.9678 23.8506 41.8423 23.8506 41.7089C23.8506 41.5755 23.6834 41.4579 23.3093 41.3481C22.9351 41.2382 22.553 41.0814 22.553 40.6107C22.5652 40.4109 22.6545 40.2233 22.8024 40.0862C22.9504 39.9491 23.146 39.873 23.3491 39.8733C23.5381 39.868 23.7245 39.918 23.8847 40.0172C24.0448 40.1163 24.1715 40.2601 24.2486 40.4303L23.8347 40.6656C23.7982 40.5707 23.7326 40.4895 23.6469 40.4332C23.5613 40.377 23.4599 40.3485 23.3571 40.3518C23.1501 40.3518 23.0307 40.4538 23.0307 40.595C23.0307 40.7362 23.1262 40.8303 23.5083 40.9401C23.8904 41.05 24.3044 41.1912 24.3044 41.7246C24.3044 42.258 23.9302 42.509 23.3969 42.509C23.1874 42.5115 22.9828 42.4471 22.8135 42.3255C22.6442 42.2039 22.5193 42.0317 22.4575 41.8344Z" fill="black"/>
<path d="M26.4211 40.3911H25.7444V42.36H25.2509V40.3911H24.5742V39.9282H26.4211V40.3911Z" fill="black"/>
<path d="M26.4604 42.1405C26.4604 42.0815 26.4782 42.0238 26.5114 41.9748C26.5447 41.9258 26.5919 41.8875 26.6472 41.865C26.7025 41.8424 26.7633 41.8365 26.822 41.848C26.8806 41.8595 26.9345 41.8879 26.9768 41.9296C27.0192 41.9713 27.048 42.0244 27.0596 42.0823C27.0713 42.1401 27.0653 42.2001 27.0424 42.2546C27.0195 42.3091 26.9808 42.3557 26.931 42.3884C26.8813 42.4212 26.8228 42.4387 26.763 42.4387C26.7232 42.4387 26.6839 42.431 26.6472 42.416C26.6105 42.401 26.5771 42.379 26.549 42.3514C26.521 42.3237 26.4987 42.2908 26.4835 42.2546C26.4683 42.2184 26.4604 42.1796 26.4604 42.1405Z" fill="black"/>
<path d="M70.969 42.0305L71.8288 41.1598C71.9837 41.0362 72.086 40.8599 72.1154 40.6656C72.1177 40.6228 72.1108 40.58 72.0952 40.5399C72.0796 40.4999 72.0556 40.4635 72.0249 40.4332C71.9941 40.4028 71.9572 40.3792 71.9165 40.3639C71.8759 40.3485 71.8324 40.3417 71.789 40.344C71.6971 40.3446 71.6076 40.3727 71.5322 40.4245C71.4569 40.4763 71.3993 40.5495 71.3671 40.6342L70.9531 40.3911C71.0205 40.2373 71.1314 40.1059 71.2726 40.0127C71.4138 39.9195 71.5793 39.8684 71.7492 39.8655C71.9603 39.8655 72.1628 39.9481 72.3121 40.0952C72.4614 40.2423 72.5452 40.4419 72.5452 40.6499C72.532 40.8011 72.4886 40.9482 72.4176 41.0828C72.3466 41.2174 72.2493 41.3369 72.1313 41.4344L71.6377 41.9207H72.5771V42.36H70.969V42.0305Z" fill="black"/>
<path d="M73.0381 41.1598C73.0381 40.3753 73.4043 39.8733 74.0411 39.8733C74.678 39.8733 75.0441 40.3989 75.0441 41.1598C75.0441 41.9207 74.6859 42.4463 74.0411 42.4463C73.3963 42.4463 73.0381 41.9285 73.0381 41.1598ZM74.5506 41.1598C74.5506 40.6342 74.3755 40.3753 74.0411 40.3753C73.7068 40.3753 73.5316 40.6656 73.5316 41.1598C73.5316 41.654 73.7068 41.9442 74.0411 41.9442C74.3755 41.9442 74.5506 41.6854 74.5506 41.1598Z" fill="black"/>
<path d="M75.3777 42.0305L76.2375 41.1598C76.3924 41.0362 76.4947 40.8599 76.5241 40.6656C76.5264 40.6228 76.5195 40.58 76.5039 40.5399C76.4883 40.4999 76.4643 40.4635 76.4336 40.4332C76.4028 40.4028 76.3659 40.3792 76.3252 40.3639C76.2846 40.3485 76.2411 40.3417 76.1977 40.344C76.1058 40.3446 76.0163 40.3727 75.9409 40.4245C75.8656 40.4763 75.808 40.5495 75.7758 40.6342L75.3618 40.3911C75.4292 40.2373 75.5401 40.1059 75.6813 40.0127C75.8225 39.9195 75.9879 39.8684 76.1579 39.8655C76.369 39.8655 76.5715 39.9481 76.7208 40.0952C76.8701 40.2423 76.9539 40.4419 76.9539 40.6499C76.9407 40.8011 76.8973 40.9482 76.8263 41.0828C76.7553 41.2174 76.658 41.3369 76.54 41.4344L76.0464 41.9207H76.9858V42.36H75.3777V42.0305Z" fill="black"/>
<path d="M77.4551 41.1598C77.4551 40.3753 77.8213 39.8733 78.4581 39.8733C79.0949 39.8733 79.4611 40.3989 79.4611 41.1598C79.4611 41.9207 79.0949 42.4463 78.4581 42.4463C77.8213 42.4463 77.4551 41.9285 77.4551 41.1598ZM78.9676 41.1598C78.9676 40.6342 78.7924 40.3753 78.4581 40.3753C78.1238 40.3753 77.9486 40.6656 77.9486 41.1598C77.9486 41.654 78.1238 41.9442 78.4581 41.9442C78.7924 41.9442 78.9676 41.6854 78.9676 41.1598Z" fill="black"/>
<path d="M31.5773 63.3752L31.0361 59.6177L34.2193 59.202L33.9726 57.3978L30.7894 57.8135L30.3677 54.6757L34.2512 54.1659L34.0045 52.3616L28.1792 53.1461L29.8504 65.3913L35.7075 64.6068L35.4608 62.8104L31.5773 63.3752ZM26.0863 53.5148L19.5209 54.7934L19.895 56.5741L22.1789 56.127L24.2559 66.4659L26.1818 66.0894L24.0809 55.7583L26.4682 55.2954L26.0863 53.5148ZM4.84641 59.1392L4.93395 68.1368C4.70051 67.4779 4.3822 66.6621 3.97899 65.6893L1.82238 60.3316L0 61.0454L4.6395 72.5219L6.59717 71.7374L6.5335 62.8026C6.77755 63.5034 7.07199 64.2878 7.41684 65.1559L9.6212 70.6L11.4436 69.8861L6.79612 58.3705L4.84641 59.1392ZM37.4741 52.0792L37.5935 53.7972C37.8084 56.9349 37.9198 59.1157 37.9277 60.2924C37.9277 61.7357 37.7129 62.1907 37.5776 62.3241C37.4709 62.4198 37.3319 62.4729 37.1876 62.4731C37.1045 62.4971 37.0161 62.4971 36.933 62.4731L36.6067 62.2927L36.3998 64.3793L36.6226 64.4421C36.8547 64.5138 37.0957 64.5534 37.3388 64.5597H37.4025C37.6731 64.5437 37.9406 64.4936 38.1983 64.4107C38.4396 64.3303 38.6616 64.2022 38.8509 64.0342C39.032 63.8722 39.1876 63.6845 39.3124 63.4772C39.4524 63.2321 39.5543 62.9677 39.6148 62.6928C39.689 62.3749 39.7421 62.0526 39.774 61.7279C39.774 61.3984 39.8297 60.9827 39.8297 60.512C39.8297 60.0413 39.8297 59.555 39.8297 59.0608C39.8297 58.5666 39.774 57.9861 39.7262 57.3193L39.4875 53.805L41.7078 53.656L42.416 64.1675L44.3737 64.042L43.5779 51.7184L37.4741 52.0792ZM15.3987 55.821L16.7118 60.5983L13.6798 61.4298L12.3269 56.6525L10.4409 57.1703L13.8071 69.0703L15.6931 68.5526L14.1732 63.1791L17.2052 62.3476L18.7251 67.7211L20.6908 67.2033L17.2847 55.3033L15.3987 55.821ZM58.531 60.2453C58.6105 59.555 58.6901 58.6764 58.7697 57.6409L59.2074 51.8831L57.2497 51.7733L56.3186 64.0891L58.4195 64.246L62.3428 56.174C62.2473 56.9114 62.1678 57.7429 62.0961 58.6607L61.6505 64.497L63.6082 64.6382L64.5392 52.2753L62.4463 52.1185L58.531 60.2453ZM93.7609 58.6137L93.1084 60.3002L95.265 61.1631L91.286 70.9373L93.1004 71.659L97.0794 61.8848L99.3077 62.7712L100 61.0847L93.7609 58.6137ZM89.591 57.2644L88.1506 62.0103L85.1504 61.1239L86.5908 56.378L84.7127 55.821L81.1157 67.6505L82.9938 68.2074L84.5854 62.8575L87.6015 63.7518L86.0099 69.0938L87.888 69.6508L91.485 57.8135L89.591 57.2644ZM73.8739 53.5304L69.9427 52.9735L68.001 52.6989L66.2343 64.9127L68.176 65.1873L69.688 54.7699L73.6113 55.3268L73.8739 53.5304ZM47.6842 53.3422C47.6842 56.48 47.6046 58.6764 47.5251 59.8452C47.4296 61.2886 47.167 61.72 47.0237 61.8456C46.9131 61.9313 46.7741 61.9732 46.6338 61.9632C46.5435 61.9716 46.4526 61.9553 46.3712 61.9162L46.021 61.7122L45.6549 63.7831L45.8698 63.8616C46.1231 63.9636 46.3923 64.022 46.6656 64.0342C46.9335 64.0395 47.201 64.0105 47.4614 63.9479C47.7071 63.8841 47.9372 63.772 48.1378 63.6184C48.3299 63.4712 48.4989 63.2967 48.6392 63.1007C48.8014 62.8593 48.9249 62.5947 49.0053 62.3162C49.1028 62.005 49.1798 61.688 49.236 61.3671C49.2917 61.0376 49.3474 60.6297 49.3793 60.159C49.4111 59.6883 49.4429 59.2098 49.4589 58.7078C49.4748 58.2057 49.4589 57.6331 49.4589 56.9585V53.4363H51.6791L51.7269 63.9714H53.6845L53.788 51.6164L47.732 51.5693L47.6842 53.3422ZM77.5585 56.127L81.3942 56.9114L81.7762 55.1307L76.0226 53.9384L73.4442 66.011L79.2297 67.2112L79.6116 65.4305L75.7441 64.646L76.5399 60.9591L79.6514 61.6024L80.0334 59.8217L76.9219 59.1785L77.5585 56.127Z" fill="url(#paint0_radial_408_59383)"/>
</g>
<defs>
<radialGradient id="paint0_radial_408_59383" cx="0" cy="0" r="1" gradientUnits="userSpaceOnUse" gradientTransform="translate(49.9841 62.0495) scale(36.1372 35.6216)">
<stop stop-color="#C09B66"/>
<stop offset="0.15" stop-color="#B6925D"/>
<stop offset="0.69" stop-color="#987441"/>
<stop offset="1" stop-color="#8C6936"/>
</radialGradient>
</defs>
</svg>
