<svg width="120" height="108" viewBox="0 0 120 108" fill="none" xmlns="http://www.w3.org/2000/svg">
<g clip-path="url(#clip0_408_922)">
<path d="M65.1757 7.35181C65.3285 7.26709 65.4717 7.13531 65.6532 7.13531C65.8346 7.13531 65.9874 7.13531 66.1688 7.19179C66.3503 7.24827 66.5222 7.24827 66.7036 7.24827C67.076 7.03176 66.8755 6.73053 66.7036 6.61757C66.7658 6.50167 66.8428 6.39411 66.9328 6.29752C66.9328 6.23163 66.8182 6.12808 66.8182 6.12808L66.8946 5.97747C66.8946 5.97747 66.7896 5.648 66.8469 5.648C66.9143 5.59377 66.9985 5.56388 67.0856 5.56328C67.2193 5.56328 67.3434 5.56328 67.3243 5.45032C67.3052 5.33736 66.78 4.50898 66.7705 4.3772C66.7609 4.24541 66.9137 4.07597 66.8373 3.9536C66.7597 3.78321 66.7082 3.60237 66.6845 3.41704C66.6272 2.9652 66.1975 2.80517 65.806 2.69221C65.5597 2.61509 65.3074 2.55841 65.0515 2.52277C64.751 2.47986 64.4444 2.51752 64.1637 2.63182C63.8831 2.74611 63.6389 2.93281 63.4568 3.17229C63.3483 3.29893 63.2612 3.44196 63.1989 3.59589C63.1049 3.90283 63.1049 4.23029 63.1989 4.53722C63.2658 4.84786 63.3804 5.13968 63.4472 5.47856C63.5592 5.93957 63.5592 6.42013 63.4472 6.88115C63.4211 6.93391 63.4075 6.99186 63.4075 7.05059C63.4075 7.10931 63.4211 7.16726 63.4472 7.22003C63.4982 7.27352 63.5651 7.30976 63.6382 7.32357C64.1296 7.51963 64.6772 7.52969 65.1757 7.35181Z" fill="#DCCAAB"/>
<path d="M66.6849 7.18335C66.5472 7.16383 66.4144 7.11914 66.2933 7.05157C66.2228 7.01396 66.1636 6.95878 66.1215 6.89154C65.9697 6.49333 65.9529 6.05736 66.0737 5.64898C66.1025 5.5219 66.1025 5.39012 66.0737 5.26303C66.0069 5.00887 65.6726 4.92415 65.5389 4.70765C65.4052 4.49114 65.6726 4.41583 65.749 4.35935C65.8254 4.30287 65.94 4.08637 66.0642 3.87927C66.3106 3.83653 66.5626 3.83653 66.809 3.87927C66.8759 3.54981 66.2074 3.42743 66.2074 3.42743L66.026 3.4745C65.9959 3.31703 65.9511 3.16262 65.8923 3.01325C65.8842 2.98238 65.8842 2.94999 65.8923 2.91911C65.8923 2.91911 66.131 2.7685 66.2551 2.68378C65.9888 2.47777 65.6788 2.33355 65.3481 2.26185C65.0175 2.19014 64.6747 2.19279 64.3452 2.26959C64.07 2.27826 63.8003 2.34761 63.5558 2.47254C63.3114 2.59747 63.0984 2.7748 62.9326 2.99151C62.7668 3.20822 62.6524 3.4588 62.5977 3.72482C62.5431 3.99085 62.5496 4.26557 62.6168 4.52879C62.7088 5.06013 62.8461 5.58286 63.0274 6.09141C63.1183 6.58123 63.0445 7.0869 62.8173 7.53165C63.3234 7.61637 65.2524 8.23765 65.2524 8.23765C65.4434 7.82346 65.644 7.47517 65.8159 7.41869C65.9588 7.37677 66.1062 7.35149 66.2551 7.34338C66.406 7.33576 66.556 7.31688 66.704 7.2869C66.7522 7.27229 66.7962 7.24682 66.8327 7.21251C66.8692 7.1782 66.897 7.13599 66.9141 7.08922C66.8855 7.12085 66.85 7.14574 66.8104 7.16203C66.7707 7.17833 66.7278 7.18562 66.6849 7.18335Z" fill="#6E464D"/>
<path d="M65.5208 4.10421C65.5406 4.06135 65.5508 4.0148 65.5508 3.96771C65.5508 3.92062 65.5406 3.87408 65.5208 3.83122C65.4308 3.64212 65.3542 3.44711 65.2915 3.24759C65.2915 3.16287 65.2915 3.07815 65.2438 2.99343C65.1772 2.79716 65.0735 2.61509 64.9381 2.45687C64.9031 2.40443 64.8576 2.35959 64.8044 2.32509C64.7476 2.31368 64.6891 2.31368 64.6324 2.32509C64.3375 2.30181 64.041 2.34636 63.7665 2.45522C63.492 2.56409 63.247 2.7343 63.0506 2.95243C62.8542 3.17056 62.712 3.43066 62.6351 3.71221C62.5581 3.99376 62.5486 4.28908 62.6072 4.57487C62.6946 5.0327 62.829 5.48058 63.0085 5.91157C63.0377 6.10701 63.0857 6.29927 63.1517 6.48578C63.2377 6.59874 64.0115 6.63639 64.107 6.48578C64.2003 6.34907 64.26 6.19288 64.2816 6.02952C64.3031 5.86617 64.2859 5.70011 64.2312 5.54445C64.1628 5.38955 64.0797 5.2414 63.9828 5.10202C63.8719 4.90965 63.8128 4.69256 63.8109 4.47133C63.8109 4.23599 64.1166 4.12303 64.279 4.1701C64.6706 4.28306 64.833 4.63135 64.833 5.11143C64.9094 5.11143 65.1578 5.11143 65.2342 5.18674C65.2055 5.0248 65.2055 4.85918 65.2342 4.69725C65.2733 4.55814 65.3381 4.42731 65.4253 4.3113C65.4626 4.24488 65.4946 4.17563 65.5208 4.10421Z" fill="#262424"/>
<path d="M66.6654 5.99629L66.5795 6.0528C66.5015 6.10257 66.4182 6.14363 66.3311 6.17523L66.2451 6.31649C66.3319 6.23951 66.4323 6.17886 66.5412 6.13756C66.6368 6.13756 66.6559 6.13756 66.7514 6.13756H66.8278C66.8706 6.09782 66.8977 6.04443 66.9043 5.98688H66.7514L66.6654 5.99629Z" fill="#6E464D"/>
<path d="M66.7038 6.32577L66.4937 6.27869C66.5059 6.36979 66.5317 6.45863 66.5701 6.54238C66.5701 6.54238 66.7038 6.62714 66.7134 6.6083C66.7722 6.50071 66.8427 6.39967 66.9235 6.30694C66.9235 6.30694 66.7993 6.34461 66.7038 6.32577Z" fill="#6E464D"/>
<path d="M66.4175 4.70695C66.4749 4.62219 66.5322 4.53743 66.6086 4.46209C66.6035 4.39005 66.6275 4.31894 66.6754 4.26433C66.6754 4.26433 66.7805 4.13248 66.7519 4.07597C66.7164 4.04709 66.6749 4.02622 66.6303 4.01483C66.5858 4.00344 66.5392 4.00181 66.494 4.01005C66.3546 4.00657 66.2177 4.04608 66.1023 4.12306C65.9877 4.22666 65.8444 4.34908 65.7202 4.44326L66.1405 4.55627C66.1405 4.55627 66.1405 4.49035 66.1405 4.47151L66.3602 4.5186C66.3602 4.60336 66.3602 4.69753 66.3602 4.79171L66.4175 4.70695ZM65.9972 4.39617C65.9972 4.39617 66.4175 4.16073 66.4653 4.1419L66.5513 4.1984C66.4175 4.21724 66.1023 4.40559 65.9972 4.34908V4.39617Z" fill="#6E464D"/>
<path d="M66.9997 5.42208C66.9138 5.42208 66.8756 5.52567 66.7991 5.58218C66.7775 5.59657 66.7526 5.6056 66.7267 5.6085C66.7007 5.6114 66.6745 5.60809 66.6501 5.59885C66.6257 5.5896 66.604 5.5747 66.5867 5.55541C66.5694 5.53611 66.5571 5.51299 66.5508 5.488C66.5508 5.54451 66.5508 5.60101 66.6941 5.68577C66.8373 5.77053 66.8278 5.85529 66.8947 5.90237C66.8469 5.81762 66.7991 5.6481 66.8469 5.6481C66.9153 5.59654 66.9997 5.56992 67.0857 5.57276C67.1908 5.57276 67.2768 5.57276 67.315 5.57276C67.1908 5.54451 67.0762 5.41266 66.9997 5.42208Z" fill="#6E464D"/>
<path d="M67.9643 3.41702C67.6014 3.21418 67.1965 3.0951 66.7802 3.06872C66.7038 2.56982 66.5223 1.08251 66.5223 0.753044C66.5223 0.423578 66.5223 0.320031 66.3409 0.178831C65.8921 -0.103569 62.9222 -0.169462 61.929 0.818938C61.8049 0.941311 62.0531 1.40256 62.0913 1.55318C62.224 2.13385 62.2881 2.7277 62.2823 3.32288C62.0012 3.4102 61.7563 3.58481 61.5842 3.82064C61.4121 4.05647 61.322 4.34087 61.3274 4.63134C61.3274 5.20555 62.6452 5.1679 62.7598 5.17731C62.4733 4.43366 63.6288 3.79355 64.8512 3.66176C65.4867 3.61003 66.1255 3.61003 66.7611 3.66176C66.7785 3.73948 66.8041 3.81519 66.8375 3.88769C67.2672 3.84062 68.0121 3.58646 67.9643 3.41702Z" fill="#262424"/>
<path d="M67.8783 3.46434C67.8019 3.24774 65.9684 2.89929 64.0585 3.03113C62.7502 3.14414 61.3464 3.50201 61.27 4.68862C61.27 3.46434 62.7597 3.07822 64.0585 2.96521C66.0639 2.82395 67.8019 3.24774 67.8783 3.46434Z" fill="#484949"/>
<path d="M66.6379 2.68282C66.5329 2.07096 66.3896 1.00725 66.3896 0.800157C66.3896 0.593064 66.3896 0.30125 66.0457 0.207117C65.7666 0.126699 65.4767 0.08861 65.186 0.0941571C64.8182 0.103328 64.4513 0.134765 64.0874 0.18829C64.6324 0.112198 65.1855 0.112198 65.7305 0.18829C65.7878 0.498931 66.0457 1.84504 66.1412 2.58869C66.3091 2.60691 66.4752 2.63839 66.6379 2.68282Z" fill="#484949"/>
<path d="M67.4009 34.3681C67.19 34.9379 67.0583 35.5332 67.0094 36.1378C67.0094 36.5237 67.5728 36.9662 67.7256 37.4462C67.7495 37.6558 67.7495 37.8674 67.7256 38.0769C67.0761 37.5458 66.4812 36.9531 65.9494 36.3072C65.86 35.571 65.5985 34.8654 65.1854 34.2457L64.8321 34.6411C64.6316 34.3398 64.0586 33.5397 64.0586 33.5397C64.6713 32.9547 65.4338 32.5447 66.2645 32.3536C66.587 32.5918 66.8549 32.8943 67.0507 33.2414C67.2466 33.5885 67.3659 33.9724 67.4009 34.3681Z" fill="#262424"/>
<path d="M66.9999 20.4363C68.7925 21.4912 70.4976 22.6841 72.0994 24.004C72.5673 24.4087 73.8087 26.3291 72.9875 27.1386C71.0776 29.0213 68.8525 33.6338 67.8594 34.9234C67.1718 34.3304 65.6725 32.7584 66.1977 31.7888C66.5129 31.1957 66.9808 30.6404 67.315 30.0567C68.0752 28.9478 68.6911 27.7492 69.1486 26.4891C69.3109 25.8396 65.5484 21.1988 65.5006 21.1329C65.4529 21.067 66.9522 20.4363 66.9999 20.4363Z" fill="#262424"/>
<path d="M53.0765 40.5244C52.0377 40.5244 51.0222 40.828 50.1585 41.3969C49.2948 41.9658 48.6216 42.7744 48.224 43.7204C47.8265 44.6665 47.7225 45.7075 47.9251 46.7118C48.1278 47.7161 48.628 48.6386 49.3626 49.3626C50.0971 50.0867 51.033 50.5798 52.0518 50.7796C53.0707 50.9793 54.1267 50.8768 55.0864 50.4849C56.0462 50.0931 56.8665 49.4295 57.4436 48.5781C58.0207 47.7267 58.3288 46.7257 58.3288 45.7017C58.3262 44.3294 57.7721 43.0139 56.7876 42.0435C55.8032 41.0731 54.4687 40.5269 53.0765 40.5244ZM57.8513 45.7205H54.2702C54.2715 45.5518 54.2356 45.3848 54.1651 45.2311L57.2974 43.4519C57.6791 44.1421 57.8794 44.9156 57.8799 45.7017L57.8513 45.7205ZM53.0765 46.8784V50.399C52.2879 50.3909 51.5136 50.1904 50.8228 49.8153L52.5226 46.756C52.6808 46.8301 52.8536 46.8687 53.0287 46.869L53.0765 46.8784ZM53.1815 46.8784C53.3437 46.8727 53.503 46.8343 53.6495 46.7654L55.3875 49.8153C54.6967 50.1904 53.9224 50.3909 53.1338 50.399L53.1815 46.8784ZM53.1338 46.5866C52.9581 46.5866 52.7864 46.5352 52.6404 46.439C52.4943 46.3428 52.3805 46.2061 52.3133 46.0461C52.2461 45.8862 52.2285 45.7102 52.2627 45.5403C52.297 45.3705 52.3816 45.2145 52.5058 45.0921C52.63 44.9697 52.7882 44.8863 52.9605 44.8525C53.1328 44.8187 53.3114 44.8361 53.4737 44.9023C53.6359 44.9686 53.7746 45.0808 53.8722 45.2248C53.9698 45.3687 54.0219 45.538 54.0219 45.7111C54.0209 45.8302 53.9952 45.9478 53.9464 46.0568C53.8977 46.1658 53.8269 46.2638 53.7384 46.3448C53.6499 46.4259 53.5455 46.4883 53.4317 46.5283C53.3179 46.5682 53.197 46.5848 53.0765 46.5772L53.1338 46.5866ZM52.112 46.3042L49.0179 48.0645C48.6193 47.385 48.3993 46.6181 48.3781 45.8335H51.9592C51.9589 45.9921 51.9914 46.149 52.0547 46.2948L52.112 46.3042ZM54.3275 45.8335H57.9086C57.8873 46.6181 57.6674 47.385 57.2688 48.0645L54.1747 46.3042C54.2406 46.1526 54.2731 45.989 54.2702 45.8241L54.3275 45.8335ZM53.1433 41.0139C53.9824 41.0149 54.8064 41.2338 55.5323 41.6486C56.2582 42.0634 56.8604 42.6594 57.2783 43.3766L54.1842 45.1369C54.0956 44.9795 53.9714 44.8442 53.8214 44.7416L55.5976 41.7011L55.5116 41.654L53.7354 44.6851C53.5747 44.5952 53.3948 44.5436 53.2102 44.5345V41.0327H53.1051V44.5251C52.9205 44.5342 52.7407 44.5857 52.5799 44.6757L50.8037 41.6446L50.7177 41.6916L52.494 44.7321C52.3439 44.8348 52.2198 44.9701 52.1311 45.1275L49.037 43.3672C49.4467 42.6636 50.0339 42.0763 50.7416 41.6624C51.4494 41.2484 52.2537 41.0218 53.0765 41.0045L53.1433 41.0139ZM48.9606 43.4613L51.9974 45.184C51.9269 45.3377 51.8911 45.5047 51.8923 45.6735H48.3113C48.3165 44.8969 48.5167 44.1337 48.8938 43.4519L48.9606 43.4613ZM49.0752 48.168L52.1788 46.4077C52.2752 46.5412 52.3988 46.6535 52.5417 46.7372L50.7559 49.7871C50.0408 49.3975 49.4391 48.8336 49.0084 48.1492L49.0752 48.168ZM55.5403 49.7777L53.7545 46.7278C53.8974 46.6441 54.021 46.5318 54.1174 46.3983L57.221 48.1586C56.7852 48.8292 56.1839 49.3798 55.4734 49.7589L55.5403 49.7777Z" fill="#484949"/>
<path d="M53.077 46.0975C53.2986 46.0975 53.4782 45.9204 53.4782 45.7019C53.4782 45.4835 53.2986 45.3064 53.077 45.3064C52.8554 45.3064 52.6758 45.4835 52.6758 45.7019C52.6758 45.9204 52.8554 46.0975 53.077 46.0975Z" fill="#484949"/>
<path d="M48.6455 28.448C49.8583 27.5062 51.8446 27.9394 53.4203 28.3349C54.0078 27.6558 54.6819 27.0544 55.4257 26.5456C53.4776 26.3573 51.0043 25.9806 48.6455 28.448Z" fill="#262424"/>
<path d="M69.9414 18.1677C70.5198 18.2424 71.0853 18.3944 71.6221 18.6195C71.9841 18.8255 72.2714 19.1383 72.4434 19.5138C72.4391 19.8153 72.3639 20.1118 72.2237 20.3798C72.1378 20.4928 71.5266 21.1047 71.2688 21.0293C71.0109 20.954 71.1446 20.8693 71.1924 20.7658C71.3165 20.5116 71.4025 20.1633 71.1064 20.0504C70.8104 19.9374 69.292 19.7491 69.292 19.7491C69.4404 19.1973 69.6586 18.6659 69.9414 18.1677Z" fill="#BBBCBE"/>
<path d="M67.0766 36.599C67.0193 36.4861 66.9906 36.326 66.9142 36.1754C66.9581 35.6944 67.0477 35.2185 67.1817 34.754C67.094 35.0554 66.9586 35.3413 66.7805 35.6012L66.8665 36.1566C66.7592 35.8975 66.6073 35.6587 66.4175 35.4506C66.5225 35.8584 66.6664 36.2555 66.8473 36.6367C67.0245 36.7784 67.2095 36.9104 67.4014 37.032C67.2726 36.9038 67.1633 36.7579 67.0766 36.599Z" fill="#484949"/>
<path d="M73.1215 26.1408C72.9209 25.1995 71.584 24.0793 70.9059 23.458C69.9144 22.506 68.8079 21.6777 67.6113 20.9917C68.4708 21.5565 70.9059 23.8157 70.7054 23.8157C70.8497 23.7705 70.9963 23.7328 71.1447 23.7028C71.4764 24.0473 71.7738 24.4224 72.0328 24.823C71.7249 24.5097 71.3496 24.2684 70.9346 24.117C71.4376 24.7338 71.9866 25.3128 72.5771 25.849V25.8961C72.5771 25.9526 72.5771 26.0373 72.4912 26.0184C72.0467 25.8406 71.5623 25.7821 71.0874 25.849C71.5076 25.849 72.8827 26.0561 72.7586 26.6774C72.6647 26.9046 72.5428 27.1196 72.3957 27.3175C72.2524 27.5811 72.0996 27.8352 71.9468 28.0894C71.7941 28.3435 71.5267 28.7766 71.2975 29.0966C72.5771 27.3551 73.2742 26.941 73.1215 26.1408Z" fill="#484949"/>
<path d="M73.6465 40.2137C74.1961 40.4879 74.7807 40.6874 75.3846 40.8068C75.9157 40.7265 76.4418 40.6165 76.9602 40.4773C77.2525 40.4861 77.5433 40.5207 77.8293 40.5808C77.0556 41.0379 76.2588 41.4558 75.4419 41.8328C74.6883 41.8374 73.9462 42.0147 73.2741 42.3505L73.6274 42.7459C73.2932 42.9059 72.4242 43.3766 72.4242 43.3766C71.9002 42.7107 71.5701 41.9166 71.4692 41.0797C71.7495 40.792 72.0885 40.566 72.4638 40.4168C72.839 40.2675 73.2422 40.1983 73.6465 40.2137Z" fill="#262424"/>
<path d="M71.211 24.5217V23.9852C71.6184 23.9852 72.0354 23.9852 72.462 23.9852L72.6529 23.8345L73.1209 23.0815L72.863 22.9779C72.3028 22.9779 71.7521 22.9779 71.211 22.9779V20.8788C71.289 20.8008 71.3419 20.7018 71.363 20.5943C71.3842 20.4868 71.3725 20.3755 71.3297 20.2744C71.2868 20.1734 71.2146 20.0871 71.1221 20.0264C71.0296 19.9657 70.921 19.9333 70.8099 19.9333C70.6988 19.9333 70.5901 19.9657 70.4976 20.0264C70.4052 20.0871 70.3329 20.1734 70.2901 20.2744C70.2472 20.3755 70.2356 20.4868 70.2567 20.5943C70.2779 20.7018 70.3308 20.8008 70.4088 20.8788V23.0344C64.7841 23.2509 60.63 25.1807 57.5169 30.358C57.1826 30.9228 56.8675 31.497 56.5619 32.09C56.0126 33.2747 55.5654 34.5027 55.225 35.7612C54.8837 36.9994 54.619 38.2568 54.4324 39.5266C54.2605 40.7221 54.0408 43.2919 54.0408 43.2919C53.6621 44.0881 53.2413 44.8642 52.7803 45.617L53.1336 45.8335C53.6897 45.1221 54.2 44.3769 54.6615 43.6025C54.6615 43.6025 55.0149 40.289 55.1104 39.6395C55.2818 38.3687 55.5403 37.1107 55.8839 35.8742C56.2552 34.6702 56.728 33.4989 57.2972 32.3724C57.5689 31.8044 57.8718 31.2513 58.2044 30.7157C60.5823 26.8939 64.5549 24.2487 70.4661 24.0134V24.5311C66.9553 24.6313 63.6254 26.0893 61.1964 28.5899C58.7673 31.0906 57.434 34.4331 57.4848 37.8949C57.5356 41.3567 58.9664 44.6598 61.4679 47.0902C63.9693 49.5205 67.3406 50.8829 70.8529 50.8829C74.3651 50.8829 77.7364 49.5205 80.2378 47.0902C82.7393 44.6598 84.1701 41.3567 84.2209 37.8949C84.2717 34.4331 82.9384 31.0906 80.5093 28.5899C78.0803 26.0893 74.7504 24.6313 71.2396 24.5311L71.211 24.5217ZM70.4947 37.2956C70.415 37.3613 70.3577 37.4497 70.3307 37.5486C70.3037 37.6475 70.3082 37.7523 70.3437 37.8486C70.3791 37.9449 70.4438 38.0281 70.529 38.0869C70.6141 38.1457 70.7155 38.1772 70.8194 38.1772C70.9234 38.1772 71.0248 38.1457 71.1099 38.0869C71.195 38.0281 71.2597 37.9449 71.2952 37.8486C71.3306 37.7523 71.3352 37.6475 71.3081 37.5486C71.2811 37.4497 71.2238 37.3613 71.1441 37.2956V36.599C71.4049 36.6769 71.6287 36.8446 71.7746 37.0715C71.9204 37.2985 71.9787 37.5695 71.9388 37.8353C71.8988 38.101 71.7634 38.3438 71.557 38.5192C71.3507 38.6947 71.0872 38.7913 70.8147 38.7913C70.5421 38.7913 70.2787 38.6947 70.0723 38.5192C69.866 38.3438 69.7305 38.101 69.6905 37.8353C69.6506 37.5695 69.7089 37.2985 69.8547 37.0715C70.0006 36.8446 70.2244 36.6769 70.4852 36.599L70.4947 37.2956ZM70.8003 50.1542C67.4985 50.1247 64.3394 48.823 61.9984 46.5275C59.6573 44.2321 58.3202 41.1249 58.2728 37.8704C58.2254 34.6158 59.4715 31.4722 61.7447 29.1114C64.0179 26.7506 67.1378 25.3601 70.4374 25.2371L70.4852 36.2319L67.6203 25.6607H67.5153L70.3801 36.2319C70.2875 36.2609 70.1979 36.2987 70.1128 36.3449L64.5358 26.9033L64.4499 26.9504L69.9982 36.4296C69.9161 36.4818 69.8394 36.5417 69.769 36.6084L61.9192 28.8707L61.8428 28.946L69.7117 36.712C69.644 36.7814 69.5833 36.8571 69.5302 36.9379L59.8947 31.4405L59.847 31.5252L69.4634 36.9944C69.4166 37.0784 69.3782 37.1666 69.3488 37.258L58.6151 34.434V34.5375L69.3488 37.3615C69.3398 37.4554 69.3398 37.55 69.3488 37.6439H58.1758V37.7474H69.2915C69.2825 37.8414 69.2825 37.9359 69.2915 38.0299L58.5578 40.8538V40.9574L69.2915 38.1334C69.321 38.2247 69.3594 38.313 69.4061 38.397L59.847 43.8849L59.8947 43.9697L69.5207 38.4911C69.5737 38.572 69.6345 38.6476 69.7021 38.717L61.8428 46.4642L61.9192 46.5395L69.7785 38.7923C69.8493 38.8558 69.9261 38.9125 70.0077 38.9618L64.4499 48.4598L64.5358 48.5069L70.0937 39.0182C70.1789 39.0643 70.2684 39.1021 70.361 39.1312L67.4962 49.7212H67.6012L70.4661 39.1312H70.7526V50.1542H70.8576V39.1877H71.1441L74.009 49.7777H74.114L71.2492 39.1877C71.3418 39.1586 71.4313 39.1208 71.5165 39.0747L77.0744 48.5634L77.1604 48.5163L71.6216 38.9712C71.7032 38.9219 71.78 38.8652 71.8508 38.8017L79.7101 46.5489L79.7865 46.4736L71.9081 38.717C71.9758 38.6476 72.0366 38.572 72.0895 38.4911L81.7155 43.9697L81.7632 43.8849L72.1373 38.4064C72.184 38.3224 72.2224 38.2341 72.2519 38.1428L82.9856 40.9668V40.8633L72.2519 38.0393C72.2609 37.9453 72.2609 37.8508 72.2519 37.7569H83.4249V37.6533H72.3187C72.3277 37.5594 72.3277 37.4648 72.3187 37.3709L83.0524 34.5469V34.4434L72.3187 37.2674C72.2893 37.1761 72.2509 37.0878 72.2041 37.0038L81.8205 31.5347L81.7728 31.4499L72.0895 36.9191C72.0365 36.8382 71.9757 36.7626 71.9081 36.6932L79.7578 28.9554L79.6814 28.8801L71.8317 36.6179C71.7678 36.5488 71.6974 36.4857 71.6216 36.4296L77.1604 26.9598L77.0744 26.9127L71.5165 36.3825C71.4314 36.3364 71.3418 36.2985 71.2492 36.2696L74.114 25.6984H74.009L71.1441 36.2413L71.1919 25.2654C74.4936 25.3901 77.6146 26.784 79.8869 29.1485C82.1592 31.5131 83.4021 34.6606 83.3497 37.9172C83.2973 41.1738 81.9536 44.2808 79.6064 46.5732C77.2592 48.8655 74.0949 50.161 70.7908 50.1825L70.8003 50.1542Z" fill="#484949"/>
<path d="M62.7886 7.67185C62.7886 7.55889 63.0178 6.65521 63.0178 6.65521C63.6607 7.10168 64.4277 7.34167 65.2142 7.34239C65.3739 7.73522 65.5689 8.11325 65.7967 8.47199C67.2613 10.0292 68.0793 12.0718 68.0886 14.1953C66.1078 12.1986 64.3325 10.0134 62.7886 7.67185Z" fill="white"/>
<path d="M71.7174 31.5252C71.6547 30.4573 71.372 29.4132 70.8866 28.4565C70.3709 27.4493 68.2032 23.844 67.6684 22.9497C67.4003 22.4662 67.2071 21.9458 67.0954 21.4059C67.1843 21.3966 67.2739 21.3966 67.3628 21.4059L67.9835 19.9845C68.1077 19.9845 69.5592 20.1445 69.9985 20.201C70.2277 20.0975 70.5524 19.2597 70.6383 18.9961C70.7156 18.7066 70.6852 18.3993 70.5524 18.1301C69.8744 18.0453 69.2154 17.8006 68.4515 17.6594C68.4515 17.6594 68.5852 13.7246 67.7544 12.1338C67.1718 11.0042 65.4911 8.60377 63.7149 7.83188C63.3943 7.68442 63.1131 7.46523 62.8936 7.19177C62.9043 7.07997 62.9267 6.96956 62.9605 6.8623C62.3875 7.19177 62.6167 7.60596 62.292 8.0578C62.292 8.22724 62.4543 8.40609 62.4543 8.40609C61.9627 9.09837 61.5466 9.83985 61.2129 10.6182C60.659 12.5009 62.1679 17.0193 62.0819 18.7043C61.9864 19.9563 60.936 20.8505 60.3439 21.4624C59.7518 22.0743 55.5691 23.3451 54.4995 23.7781C53.43 24.2111 50.1354 25.9149 48.8462 28.24C51.5105 25.416 54.2704 26.442 56.419 26.3573C58.4958 26.2986 60.5102 25.6443 62.2156 24.4747C62.5663 25.1497 63.1583 25.6729 63.8772 25.9431C64.6221 26.8845 68.652 30.6498 68.652 30.6498C68.652 30.6498 68.2223 33.2196 71.6219 42.1623C71.6219 42.2753 74.9547 41.3528 75.3654 40.562C73.8422 37.6793 72.6199 34.6515 71.7174 31.5252Z" fill="#262424"/>
<path d="M62.798 7.76599C63.6956 8.0391 66.0066 8.50056 66.0066 8.50056L65.7392 8.90551C65.1949 8.75483 62.7598 8.21803 62.7598 8.21803L62.798 7.76599Z" fill="#262424"/>
<path d="M65.8923 8.01079C65.9758 7.93655 66.0731 7.87898 66.1789 7.84128C66.2046 8.16324 66.2753 8.48016 66.389 8.78303C66.2205 8.75941 66.0543 8.72161 65.8923 8.67002L65.749 8.32157L65.8923 8.01079Z" fill="#262424"/>
<path d="M65.6538 8.26491L65.9117 8.34967C65.8457 8.62122 65.8104 8.89918 65.8067 9.17841C65.6729 9.17841 65.2812 8.80171 65.2812 8.80171C65.3481 8.55686 65.4436 8.22724 65.501 8.21783C65.5583 8.20841 65.6538 8.26491 65.6538 8.26491Z" fill="#262424"/>
<path d="M70.3802 29.0872C70.5001 29.7598 70.5001 30.4478 70.3802 31.1205C70.3802 31.2617 70.4662 31.8641 70.3802 31.9677C70.5895 31.4866 70.6874 30.9657 70.6667 30.4427C70.6667 30.2356 70.6667 29.699 70.8768 29.6237C71.3638 31.7888 71.0105 34.0951 71.6694 36.2131C71.5835 34.3304 71.5453 30.8381 71.3256 29.9061C70.9502 28.6598 70.3869 27.4762 69.6545 26.395C69.4444 26.1408 67.1143 22.3566 67.1238 21.6883C67.0188 23.3921 69.9791 28.0329 70.3802 29.0872Z" fill="#484949"/>
<path d="M71.4692 32.3724C71.9658 33.4832 74.2673 39.2065 74.4774 39.5736C74.7014 39.8761 74.9086 40.1904 75.0981 40.515C74.6996 40.5733 74.2976 40.6048 73.8948 40.6091C73.3601 40.6091 72.9399 40.6656 73.3983 40.1384C73.8566 39.6113 71.7844 33.0784 71.4692 32.3724Z" fill="#484949"/>
<path d="M75.9098 41.2024C75.9098 40.9199 75.7187 40.9858 75.3462 40.8822C76.2346 41.0706 76.6835 40.4961 77.2567 40.6468C76.9797 40.854 76.1868 41.0141 75.9098 41.2024Z" fill="#484949"/>
<path d="M64.5744 8.62259L65.1283 9.77102L64.1733 10.044C65.1269 10.4194 65.9844 10.9981 66.6845 11.7386C67.3845 12.479 67.9097 13.363 68.2224 14.3271C67.6589 11.296 67.0573 10.8818 64.5744 8.62259Z" fill="#484949"/>
<path d="M70.5235 18.2242C70.4566 18.2242 69.072 17.9135 68.5563 17.8288C68.2793 17.8288 68.012 17.8288 67.735 17.8288H67.3721C67.2598 17.8372 67.1473 17.8144 67.0474 17.7629C66.9615 17.7064 66.9711 17.5935 66.9806 17.4993C66.9806 17.0569 66.8374 17.1699 66.5318 16.9251C66.2262 16.6804 65.9779 16.2568 65.5768 15.9273C64.7365 15.1648 64.4022 14.44 62.9507 12.868C63.8483 13.8093 65.233 16.6333 65.9492 17.0569C66.0734 17.1322 65.8442 17.4146 65.7965 17.4805C65.615 17.7253 65.2235 18.0359 66.1689 18.0077C66.3599 18.0077 66.8087 17.8006 66.9328 17.9418C67.057 18.083 66.9329 18.4313 66.7419 18.6007C66.5509 18.7701 66.6368 18.7419 66.7419 18.7796H66.7896C67.1238 18.7796 67.3148 18.5254 67.5918 18.4218C67.8534 18.3553 68.1247 18.333 68.3939 18.356C69.1585 18.3405 69.9221 18.4196 70.6667 18.5913C70.5617 18.5254 70.5044 18.1959 70.5235 18.2242ZM66.7705 17.4523C66.7705 17.1605 65.997 17.6217 65.8156 17.8382C65.9588 17.4899 66.7037 16.991 66.8565 17.1605C67.0093 17.3299 66.8469 17.377 66.761 17.4523H66.7705ZM66.9997 18.5725C67.0841 18.5006 67.153 18.4127 67.2022 18.3141C67.2514 18.2154 67.28 18.108 67.2862 17.9982C67.2862 17.9135 67.162 17.7912 67.162 17.7912C67.162 17.7912 67.2575 17.7912 67.2766 17.7912C67.2957 17.7912 67.7064 17.8853 67.6491 18.0453C67.5918 18.2053 66.9902 18.5725 66.9902 18.5725H66.9997Z" fill="#484949"/>
<path d="M64.9378 15.3249C64.613 13.6682 64.9378 11.0983 63.5049 10.4676C64.4601 10.9289 64.6799 13.7058 64.4601 14.3459C64.6572 14.653 64.8174 14.9815 64.9378 15.3249Z" fill="#484949"/>
<path d="M68.3371 17.65L67.6015 17.5841C67.7292 16.0754 67.6327 14.5563 67.3149 13.0751C67.9821 14.511 68.3306 16.0707 68.3371 17.65Z" fill="#484949"/>
<path d="M55.0149 41.0327C55.2043 42.1561 55.3065 43.2922 55.3204 44.4309C55.3484 44.9224 55.4784 45.403 55.7024 45.8429C55.8934 46.0688 58.6628 50.2107 58.9397 50.399C59.2167 50.5872 59.4841 50.6626 59.6369 50.7943C59.6819 50.8374 59.7144 50.8915 59.7312 50.951C59.748 51.0106 59.7484 51.0735 59.7324 51.1332C59.3626 51.2261 58.9752 51.2261 58.6055 51.1332C58.2513 50.7136 57.932 50.2666 57.6505 49.7965C57.4596 49.8907 57.2877 49.9471 57.2877 49.6836C57.2877 49.42 54.2891 45.7111 54.27 45.504C54.2509 45.297 54.4037 45.071 54.3846 44.9016C54.2891 44.045 53.0381 42.9624 53.0381 42.9624C53.7564 42.3811 54.4182 41.7351 55.0149 41.0327Z" fill="#262424"/>
<path d="M43.1642 43.0566C42.5159 44.0297 41.6863 44.873 40.7195 45.5417C39.9027 46.1369 39.2172 46.8895 38.7045 47.7538C38.1571 48.6385 37.724 49.5872 37.4153 50.5778C37.4917 50.7849 37.931 50.8602 37.9692 50.9167C38.0074 50.9732 38.0456 51.1991 37.9692 51.1991C37.5014 51.2262 37.032 51.1882 36.575 51.0861C36.575 50.8979 36.5177 50.6908 36.6705 50.4837C37.1084 49.6551 37.4297 48.7715 37.6254 47.8574C37.6254 47.7632 37.5013 47.735 37.74 47.575C38.9481 46.5374 39.8379 45.1875 40.3089 43.6779C40.4235 42.9248 40.5094 40.9668 41.0728 40.7032C41.3706 40.5515 41.6945 40.4558 42.0278 40.4208L43.1642 43.0566Z" fill="#262424"/>
<path d="M44.883 45.4664C44.6704 45.4962 44.4668 45.5704 44.2856 45.6841C44.1045 45.7977 43.95 45.9481 43.8326 46.1253L43.6702 46.3136C43.6702 46.8219 43.6702 48.0174 43.5938 48.0645C43.5174 48.1115 43.3073 48.3751 43.5938 48.4786C44.509 49.002 45.2796 49.739 45.838 50.6249C45.8891 50.8286 46.0194 51.0044 46.2009 51.1144C46.5064 51.1144 47.4614 51.1144 47.4614 51.1144C47.2895 50.7755 47.2131 50.5025 46.9266 50.4837C46.6827 50.4849 46.4461 50.4016 46.2582 50.2483C45.7159 49.5954 45.2243 48.9031 44.7875 48.1774C44.7718 47.1857 45.0327 46.2088 45.5419 45.3534C45.2841 45.5511 45.1695 45.4758 44.883 45.4664Z" fill="#262424"/>
<path d="M54.8246 42.9907C54.7458 42.4697 54.6948 41.9449 54.6717 41.4186C54.1855 41.9687 53.6482 42.473 53.0669 42.9248C53.5254 43.3201 54.538 44.4121 54.4043 44.9957C54.7627 44.3905 54.9103 43.6863 54.8246 42.9907Z" fill="#262424"/>
<path d="M57.7178 37.6533C57.674 37.4581 57.593 37.2728 57.4791 37.1073C57.3792 37.0025 57.2493 36.9303 57.1067 36.9002C54.9294 37.3709 54.958 38.284 52.6757 38.6982C54.0603 39.4701 55.063 40.7879 53.8693 42.4635C52.8234 43.6056 51.8658 44.8233 51.0045 46.1065C50.9281 46.8878 50.8612 48.3939 50.823 48.5069C50.7848 48.6198 50.5652 49.1564 50.5652 49.1564C50.2214 49.2129 50.1832 49.4576 50.336 49.4576C49.9613 49.7895 49.5439 50.0711 49.0946 50.2954C48.6553 50.2954 48.4261 50.2954 48.2542 50.4931C48.1313 50.67 48.0348 50.8634 47.9677 51.0673C47.9104 51.1803 47.8627 51.2273 48.0346 51.2085C48.4796 51.1808 48.9177 51.0855 49.3333 50.9261C49.5625 50.7567 50.7084 49.8718 50.9758 49.7024C51.2251 49.5159 51.4007 49.2496 51.4724 48.9493C51.587 48.6292 51.883 45.344 52.5133 44.7698C55.0535 42.4541 55.6551 40.0631 58.5773 38.7076C58.4763 38.6621 58.383 38.6018 58.3004 38.5287C58.0292 38.2945 57.8278 37.9918 57.7178 37.6533Z" fill="#262424"/>
<path d="M62.5975 38.7923C61.9836 38.3799 61.414 37.9068 60.8976 37.3803C60.9049 37.2302 60.8719 37.0809 60.8021 36.9473C60.3794 36.5931 59.9023 36.3071 59.3888 36.1001C59.1867 36.0195 58.9607 36.0195 58.7585 36.1001C58.6917 36.1001 58.7012 36.2225 58.663 36.2978C58.5731 36.5124 58.5308 36.7435 58.5389 36.9755C58.5157 37.0937 58.5157 37.2151 58.5389 37.3332C58.5919 37.4624 58.6857 37.5713 58.8063 37.6439C58.926 37.7158 59.0543 37.7727 59.1883 37.8133L59.3792 37.8792L59.5607 37.9639C59.6272 37.9864 59.6821 38.0337 59.7135 38.0957C59.7135 38.2087 59.6562 38.2369 59.5798 38.284L59.2647 38.4817C59.8854 38.6323 60.6493 38.9523 60.869 38.9994C61.0959 39.0393 61.3261 39.0582 61.5565 39.0559C61.8033 39.125 62.0557 39.1722 62.311 39.1971C62.3874 39.1971 62.6834 39.1029 62.7025 39.0088C62.7216 38.9147 62.5975 38.7923 62.5975 38.7923Z" fill="#6E464D"/>
<path d="M42.5339 41.5693C41.6648 42.247 42.0468 42.9342 41.3497 44.3086C40.538 45.8994 39.7072 45.9465 39.0291 47.2361C38.9854 47.3183 38.9471 47.4032 38.9146 47.4903C39.4016 46.9631 40.2419 45.73 40.7194 45.5511C41.6863 44.8824 42.5158 44.0391 43.1641 43.066L42.5339 41.5693Z" fill="#262424"/>
<path d="M59.9332 37.9357C59.9332 37.8228 59.9332 37.7098 59.9332 37.6063C60.0574 37.1732 60.4967 37.6063 60.6781 37.4274C60.8596 37.2485 60.6781 37.0885 60.4967 36.9473C60.0571 36.5258 59.529 36.2044 58.9496 36.006C58.7971 35.9939 58.6438 35.9939 58.4913 36.006C58.1618 35.9159 57.8166 35.8967 57.479 35.9495C57.2498 36.006 56.6291 36.552 56.6959 36.6649C56.7628 36.7779 57.4217 36.7591 57.4217 36.7591L57.097 36.8249C57.2397 36.855 57.3696 36.9272 57.4694 37.032C57.5833 37.1975 57.6643 37.3828 57.7082 37.578C57.8191 37.893 58.0097 38.1749 58.2621 38.397C58.3447 38.47 58.438 38.5303 58.539 38.5758C58.7109 38.4942 58.8892 38.4221 59.0738 38.3593H59.2839L59.599 38.1616C59.7518 38.2087 59.9046 38.0957 59.9332 37.9357Z" fill="#262424"/>
<path d="M54.4326 42.087C55.6168 40.4491 53.6973 38.67 52.6755 38.717C51.8297 38.8557 50.9737 38.925 50.1162 38.9241C49.2759 38.9241 44.7303 38.9994 43.8326 39.0371C43.0028 39.1502 42.2113 39.4532 41.5216 39.9219C39.9555 40.355 38.3512 40.7691 37.1002 39.7337C35.8492 38.6982 35.4672 37.418 36.5463 36.1472C36.6716 36.0249 36.7866 35.8926 36.8901 35.7518C36.8901 35.7518 36.6609 35.6389 36.2025 36.1284C35.7735 36.7298 35.5994 37.4724 35.7171 38.1983C35.8348 38.9243 36.235 39.5764 36.8328 40.0161C39.1533 41.7199 41.6076 40.3267 41.6553 40.5809C41.9514 42.2847 43.0782 43.5178 43.4602 44.3462C43.6545 44.977 43.7353 45.6365 43.6989 46.2948C44.5488 45.6076 45.0072 45.7582 45.5229 45.3534C45.7053 44.808 45.7681 44.2305 45.7072 43.6593C45.6463 43.0881 45.463 42.5361 45.1696 42.0399C46.6497 41.5693 48.3782 44.4686 51.224 44.0167C51.1571 44.2615 51.0616 45.1934 50.9757 46.0594C52.1407 44.1674 53.7737 42.9907 54.4326 42.087Z" fill="#262424"/>
<path d="M60.5161 37.4181C60.5161 37.2203 60.4396 37.0979 60.3632 37.0885C60.2442 37.0941 60.126 37.1099 60.0098 37.1356C60.1053 37.3114 60.1944 37.4024 60.2772 37.4087C60.3537 37.4275 60.4874 37.4558 60.5161 37.4181Z" fill="#040706"/>
<path d="M61.6526 39.0749C61.4629 38.9356 61.2444 38.8392 61.0126 38.7924C60.9362 38.7924 60.535 38.5852 60.4395 38.67C60.5063 38.8112 60.7929 38.8583 60.9935 38.8489C61.1941 38.8395 61.4138 39.0561 61.6335 39.1032H61.7004L61.6526 39.0749Z" fill="#040706"/>
<path d="M60.6019 36.9661C60.6904 37.1282 60.7701 37.2947 60.8407 37.465C60.9113 37.5829 60.998 37.6906 61.0985 37.7851C61.3213 38.0082 61.5678 38.2071 61.8338 38.3781C62.0694 38.5265 62.315 38.6586 62.5691 38.7735C61.9693 38.3651 61.4127 37.8984 60.9075 37.3803C60.9148 37.2302 60.8818 37.0809 60.812 36.9473C60.3893 36.5931 59.9122 36.3072 59.3987 36.1001C59.2877 36.087 59.1755 36.087 59.0645 36.1001C59.5596 36.2467 60.0182 36.4936 60.4109 36.8249C60.4798 36.8648 60.5439 36.9121 60.6019 36.9661Z" fill="#DCCAAB"/>
<path d="M26.4819 50.3143V50.832H24.6191V47.9139H26.4532V48.4693H25.2114V49.1H26.3482V49.6459H25.2114V50.3143H26.4819Z" fill="black"/>
<path d="M26.9492 50.2013L27.4555 49.9095C27.5036 50.049 27.5971 50.1689 27.7215 50.2506C27.8459 50.3323 27.9941 50.3712 28.1433 50.3613C28.4967 50.3613 28.6209 50.2107 28.6209 50.0507C28.6209 49.8907 28.4203 49.7495 27.9713 49.6177C27.5224 49.4859 27.0639 49.2976 27.0639 48.7328C27.0785 48.4931 27.1855 48.2679 27.3631 48.1034C27.5407 47.9389 27.7754 47.8475 28.0191 47.848C28.246 47.8416 28.4696 47.9017 28.6618 48.0206C28.854 48.1396 29.006 48.3121 29.0986 48.5163L28.6018 48.7987C28.5581 48.6849 28.4793 48.5874 28.3765 48.5199C28.2737 48.4524 28.1521 48.4182 28.0287 48.4222C27.7803 48.4222 27.637 48.5446 27.637 48.714C27.637 48.8834 27.7516 48.9964 28.2102 49.1282C28.6687 49.26 29.1654 49.4294 29.1654 50.0695C29.1654 50.7096 28.7164 51.0108 28.0764 51.0108C27.8251 51.0137 27.5795 50.9365 27.3764 50.7906C27.1732 50.6447 27.0234 50.438 26.9492 50.2013Z" fill="black"/>
<path d="M31.7055 48.4693H30.8935V50.832H30.3012V48.4693H29.4893V47.9139H31.7055V48.4693Z" fill="black"/>
<path d="M31.7524 50.5686C31.7524 50.4978 31.7737 50.4286 31.8136 50.3697C31.8535 50.3109 31.9102 50.265 31.9765 50.2379C32.0429 50.2108 32.1158 50.2038 32.1863 50.2176C32.2567 50.2314 32.3214 50.2655 32.3721 50.3155C32.4229 50.3656 32.4575 50.4293 32.4715 50.4987C32.4855 50.5682 32.4783 50.6401 32.4508 50.7055C32.4233 50.7709 32.3768 50.8268 32.3171 50.8661C32.2574 50.9054 32.1872 50.9264 32.1154 50.9264C32.0678 50.9264 32.0206 50.9172 31.9765 50.8992C31.9325 50.8812 31.8925 50.8548 31.8588 50.8216C31.8251 50.7884 31.7983 50.7489 31.7801 50.7055C31.7618 50.6621 31.7524 50.6156 31.7524 50.5686Z" fill="black"/>
<path d="M85.1631 50.4366L86.1948 49.3918C86.3808 49.2435 86.5035 49.0319 86.5387 48.7987C86.5415 48.7473 86.5332 48.6959 86.5145 48.6479C86.4958 48.5998 86.4671 48.5562 86.4301 48.5198C86.3932 48.4834 86.3489 48.4551 86.3001 48.4366C86.2514 48.4182 86.1992 48.4101 86.1471 48.4128C86.0368 48.4135 85.9294 48.4472 85.839 48.5094C85.7486 48.5716 85.6795 48.6593 85.6408 48.7611L85.144 48.4693C85.2249 48.2847 85.358 48.1271 85.5274 48.0152C85.6968 47.9034 85.8954 47.842 86.0993 47.8386C86.3527 47.8386 86.5956 47.9377 86.7748 48.1143C86.9539 48.2908 87.0546 48.5302 87.0546 48.7799C87.0387 48.9613 86.9866 49.1378 86.9014 49.2993C86.8162 49.4609 86.6994 49.6042 86.5578 49.7212L85.9656 50.3049H87.0928V50.832H85.1631V50.4366Z" fill="black"/>
<path d="M87.646 49.3917C87.646 48.4504 88.0854 47.848 88.8496 47.848C89.6138 47.848 90.0533 48.4787 90.0533 49.3917C90.0533 50.3048 89.6234 50.9355 88.8496 50.9355C88.0759 50.9355 87.646 50.3142 87.646 49.3917ZM89.461 49.3917C89.461 48.7611 89.2508 48.4504 88.8496 48.4504C88.4484 48.4504 88.2383 48.7987 88.2383 49.3917C88.2383 49.9848 88.4484 50.3331 88.8496 50.3331C89.2508 50.3331 89.461 50.0224 89.461 49.3917Z" fill="black"/>
<path d="M90.4537 50.4366L91.4854 49.3918C91.6713 49.2435 91.794 49.0319 91.8293 48.7987C91.832 48.7473 91.8238 48.6959 91.8051 48.6479C91.7864 48.5998 91.7576 48.5562 91.7207 48.5198C91.6837 48.4834 91.6394 48.4551 91.5907 48.4366C91.5419 48.4182 91.4898 48.4101 91.4376 48.4128C91.3274 48.4135 91.2199 48.4472 91.1295 48.5094C91.0391 48.5716 90.97 48.6593 90.9313 48.7611L90.4346 48.4693C90.5154 48.2847 90.6485 48.1271 90.8179 48.0152C90.9874 47.9034 91.1859 47.842 91.3898 47.8386C91.6432 47.8386 91.8862 47.9377 92.0653 48.1143C92.2445 48.2908 92.3451 48.5302 92.3451 48.7799C92.3292 48.9613 92.2772 49.1378 92.1919 49.2993C92.1067 49.4609 91.9899 49.6042 91.8484 49.7212L91.2561 50.3049H92.3833V50.832H90.4537V50.4366Z" fill="black"/>
<path d="M92.9463 49.3917C92.9463 48.4504 93.3857 47.848 94.1499 47.848C94.9141 47.848 95.3535 48.4787 95.3535 49.3917C95.3535 50.3048 94.9141 50.9355 94.1499 50.9355C93.3857 50.9355 92.9463 50.3142 92.9463 49.3917ZM94.7613 49.3917C94.7613 48.7611 94.5511 48.4504 94.1499 48.4504C93.7487 48.4504 93.5385 48.7987 93.5385 49.3917C93.5385 49.9848 93.7487 50.3331 94.1499 50.3331C94.5511 50.3331 94.7613 50.0224 94.7613 49.3917Z" fill="black"/>
<path d="M37.8927 76.0503L37.2434 71.5413L41.0632 71.0424L40.7671 68.8773L36.9473 69.3762L36.4412 65.6109L41.1014 64.999L40.8053 62.834L33.8151 63.7753L35.8205 78.4695L42.849 77.5282L42.5529 75.3725L37.8927 76.0503ZM31.3035 64.2177L23.4251 65.7521L23.8739 67.8889L26.6147 67.3524L29.1071 79.7591L31.4181 79.3073L28.897 66.9099L31.7619 66.3545L31.3035 64.2177ZM5.81569 70.9671L5.92074 81.7642C5.64062 80.9735 5.25863 79.9945 4.77479 78.8272L2.18685 72.3979L0 73.2545L5.5674 87.0262L7.9166 86.0849L7.8402 75.3631C8.13306 76.204 8.48639 77.1454 8.90021 78.1871L11.5454 84.72L13.7323 83.8633L8.15534 70.0446L5.81569 70.9671ZM44.969 62.4951L45.1122 64.5566C45.37 68.3219 45.5037 70.9388 45.5133 72.3508C45.5133 74.0829 45.2555 74.6289 45.0931 74.7889C44.9651 74.9037 44.7983 74.9675 44.6252 74.9677C44.5254 74.9965 44.4194 74.9965 44.3196 74.9677L43.9281 74.7512L43.6798 77.2552L43.9472 77.3305C44.2256 77.4166 44.5149 77.4641 44.8066 77.4717H44.883C45.2078 77.4524 45.5287 77.3923 45.838 77.2928C46.1275 77.1964 46.394 77.0426 46.621 76.841C46.8385 76.6467 47.0252 76.4214 47.1749 76.1727C47.3429 75.8785 47.4652 75.5612 47.5378 75.2313C47.6268 74.8498 47.6906 74.4631 47.7288 74.0735C47.7288 73.6781 47.7956 73.1792 47.7956 72.6144C47.7956 72.0496 47.7956 71.466 47.7956 70.8729C47.7956 70.2799 47.7288 69.5833 47.6715 68.7832L47.385 64.566L50.0493 64.3872L50.8993 77.001L53.2484 76.8504L52.2935 62.0621L44.969 62.4951ZM18.4784 66.9852L20.0541 72.718L16.4157 73.7158L14.7923 67.9831L12.529 68.6043L16.5685 82.8844L18.8318 82.2631L17.0078 75.8149L20.6462 74.8171L22.4702 81.2653L24.8289 80.644L20.7417 66.364L18.4784 66.9852ZM70.2371 72.2944C70.3326 71.466 70.4281 70.4117 70.5236 69.1691L71.0489 62.2597L68.6997 62.128L67.5824 76.9069L70.1035 77.0952L74.8114 67.4088C74.6968 68.2937 74.6013 69.2915 74.5154 70.3929L73.9806 77.3964L76.3298 77.5658L77.4471 62.7304L74.9355 62.5421L70.2371 72.2944ZM112.513 70.3364L111.73 72.3603L114.318 73.3957L109.543 85.1247L111.721 85.9908L116.495 74.2617L119.169 75.3255L120 73.3016L112.513 70.3364ZM107.509 68.7173L105.781 74.4124L102.18 73.3487L103.909 67.6536L101.655 66.9852L97.3388 81.1805L99.5925 81.8489L101.502 75.429L105.122 76.5021L103.212 82.9126L105.466 83.581L109.782 69.3762L107.509 68.7173ZM88.6487 64.2365L83.9312 63.5682L81.6011 63.2387L79.4811 77.8953L81.8112 78.2248L83.6257 65.7239L88.3336 66.3922L88.6487 64.2365ZM57.2211 64.0106C57.2211 67.776 57.1256 70.4117 57.0301 71.8143C56.9155 73.5463 56.6003 74.0641 56.4285 74.2147C56.2957 74.3175 56.1289 74.3679 55.9605 74.3559C55.8522 74.366 55.7432 74.3464 55.6454 74.2994L55.2252 74.0547L54.7859 76.5398L55.0438 76.6339C55.3477 76.7564 55.6707 76.8264 55.9987 76.841C56.3202 76.8474 56.6413 76.8126 56.9537 76.7375C57.2485 76.6609 57.5246 76.5264 57.7654 76.3421C57.9959 76.1654 58.1987 75.956 58.367 75.7208C58.5617 75.4312 58.7098 75.1137 58.8063 74.7795C58.9233 74.4061 59.0158 74.0256 59.0832 73.6405C59.1501 73.2451 59.2169 72.7556 59.2551 72.1908C59.2933 71.626 59.3315 71.0518 59.3506 70.4493C59.3697 69.8469 59.3506 69.1597 59.3506 68.3502V64.1236H62.015L62.0723 76.7657H64.4214L64.5456 61.9397L57.2784 61.8832L57.2211 64.0106ZM93.0702 67.3524L97.6731 68.2937L98.1315 66.1569L91.2271 64.726L88.1331 79.2132L95.0756 80.6534L95.534 78.5166L90.8929 77.5752L91.8478 73.151L95.5817 73.9229L96.0401 71.786L92.3062 71.0141L93.0702 67.3524Z" fill="url(#paint0_radial_408_922)"/>
<path d="M31.7236 92.3824L33.5667 94.7076H32.3348L30.6254 92.5519V94.7076H29.6036V92.5519L27.8943 94.7076H26.7388L28.5818 92.3824L26.7388 90.1515H27.9229L29.6036 92.2507V90.1515H30.5586V92.2507L32.2584 90.1515H33.4426L31.7045 92.3824H31.7236Z" fill="#262424"/>
<path d="M38.122 90.1515V94.6981H37.1671V91.7047C36.9251 92.1189 36.6832 92.5142 36.4413 92.8908L35.2763 94.7076H34.2354V90.1515H35.1903V93.192C35.5023 92.6648 35.7442 92.2695 35.9161 92.0059L37.0811 90.2079L38.122 90.1515Z" fill="#262424"/>
<path d="M42.7632 90.1515V94.6981H41.8082V91.0458H40.3758V93.3991C40.4043 93.7767 40.2846 94.1507 40.0415 94.444C39.9179 94.568 39.7686 94.6641 39.6038 94.7259C39.4389 94.7876 39.2625 94.8135 39.0866 94.8017H38.7905V93.8603H39.0388C39.2744 93.8603 39.3922 93.6752 39.3922 93.305V90.1044L42.7632 90.1515Z" fill="#262424"/>
<path d="M45.9718 90.048C46.2842 90.043 46.5942 90.1024 46.882 90.2223C47.1697 90.3423 47.4289 90.5202 47.6429 90.7445C47.8666 90.9635 48.0428 91.2249 48.161 91.5129C48.2791 91.8009 48.3368 92.1095 48.3305 92.4201C48.3314 92.8357 48.2228 93.2444 48.0154 93.6062C47.8108 93.9641 47.5145 94.2628 47.1559 94.4722C46.8012 94.6823 46.3951 94.793 45.9813 94.7923C45.6716 94.8027 45.3632 94.7494 45.0755 94.636C44.7878 94.5226 44.5271 94.3514 44.3102 94.1333C44.0867 93.9123 43.9107 93.6492 43.7926 93.3598C43.6744 93.0703 43.6166 92.7603 43.6226 92.4484C43.6138 92.0241 43.7192 91.6051 43.9282 91.234C44.1309 90.8747 44.4277 90.5757 44.7876 90.368C45.1421 90.1575 45.5484 90.0468 45.9622 90.048H45.9718ZM45.9718 93.8133C46.1513 93.8192 46.33 93.7859 46.4951 93.716C46.6601 93.646 46.8075 93.541 46.9267 93.4085C47.1692 93.1237 47.3022 92.7637 47.3022 92.3919C47.3022 92.02 47.1692 91.6601 46.9267 91.3752C46.8067 91.2426 46.6596 91.1364 46.495 91.0637C46.3304 90.9911 46.1521 90.9535 45.9718 90.9535C45.7914 90.9535 45.6131 90.9911 45.4486 91.0637C45.284 91.1364 45.1369 91.2426 45.0168 91.3752C44.7743 91.6601 44.6414 92.02 44.6414 92.3919C44.6414 92.7637 44.7743 93.1237 45.0168 93.4085C45.1347 93.5433 45.2816 93.6504 45.4468 93.722C45.612 93.7937 45.7914 93.8281 45.9718 93.8227V93.8133Z" fill="#262424"/>
<path d="M53.0766 94.7076H52.1217V91.7047C51.8797 92.1189 51.6378 92.5142 51.3959 92.8908L50.2308 94.7076H49.1899V90.1515H50.1449V93.192C50.4568 92.6649 50.6988 92.2695 50.8707 92.0059L52.0357 90.208H53.048L53.0766 94.7076ZM51.7015 88.9089H52.2745C52.2593 89.0349 52.2185 89.1565 52.1545 89.2665C52.0905 89.3765 52.0046 89.4726 51.902 89.549C51.6765 89.717 51.4016 89.8079 51.119 89.8079C50.8363 89.8079 50.5614 89.717 50.3359 89.549C50.2333 89.4726 50.1474 89.3765 50.0834 89.2665C50.0194 89.1565 49.9786 89.0349 49.9635 88.9089H50.5364C50.5516 88.9622 50.5782 89.0116 50.6145 89.0538C50.6507 89.0961 50.6958 89.1301 50.7465 89.1537C50.8587 89.2212 50.9875 89.2571 51.119 89.2572C51.2503 89.2566 51.379 89.2208 51.4914 89.1537C51.5912 89.1024 51.6667 89.0145 51.7015 88.9089Z" fill="#262424"/>
<path d="M57.9183 92.373L59.7614 94.7076H58.5486L56.8392 92.5519V94.7076H55.8843V90.1515H56.8392V92.2507L58.5295 90.1515H59.7136L57.9183 92.3636V92.373Z" fill="#262424"/>
<path d="M62.6069 90.0479C62.9193 90.043 63.2293 90.1024 63.5171 90.2223C63.8048 90.3423 64.064 90.5201 64.278 90.7445C64.4965 90.9658 64.6674 91.2282 64.7807 91.5161C64.8939 91.804 64.947 92.1115 64.937 92.4201C64.9383 92.8357 64.8297 93.2445 64.6218 93.6061C64.4173 93.9641 64.1209 94.2627 63.7624 94.4722C63.4049 94.6839 62.9952 94.7946 62.5782 94.7922C62.2673 94.7964 61.959 94.7367 61.6728 94.6167C61.3867 94.4968 61.1291 94.3193 60.9166 94.0956C60.6927 93.8749 60.5164 93.6119 60.3982 93.3224C60.2801 93.0328 60.2225 92.7227 60.229 92.4107C60.2281 91.9951 60.3367 91.5864 60.5442 91.2246C60.7472 90.8656 61.044 90.5666 61.4036 90.3586C61.7581 90.148 62.1644 90.0373 62.5782 90.0385L62.6069 90.0479ZM62.6069 93.8132C62.7864 93.8191 62.9651 93.7859 63.1302 93.7159C63.2952 93.6459 63.4426 93.541 63.5618 93.4085C63.8043 93.1236 63.9373 92.7637 63.9373 92.3918C63.9373 92.02 63.8043 91.66 63.5618 91.3752C63.4418 91.2425 63.2947 91.1364 63.1301 91.0637C62.9655 90.991 62.7872 90.9535 62.6069 90.9535C62.4265 90.9535 62.2482 90.991 62.0836 91.0637C61.9191 91.1364 61.7719 91.2425 61.6519 91.3752C61.4094 91.66 61.2765 92.02 61.2765 92.3918C61.2765 92.7637 61.4094 93.1236 61.6519 93.4085C61.7698 93.5432 61.9167 93.6503 62.0819 93.722C62.2471 93.7936 62.4265 93.828 62.6069 93.8226V93.8132Z" fill="#262424"/>
<path d="M70.4661 90.1515L71.1441 94.6981H70.1891L69.7785 91.8741L68.7185 94.6981H68.0882L66.99 91.8741L66.5985 94.6981H65.6436L66.2643 90.1515H67.3052L68.4034 92.9755L69.4634 90.1515H70.4661Z" fill="#262424"/>
<path d="M75.7283 90.1515V94.6981H74.7733V91.0457H72.9589V94.6981H72.0039V90.1515H75.7283Z" fill="#262424"/>
<path d="M80.35 90.1515V94.6981H79.3951V91.0458H77.9626V93.3991C77.9911 93.7767 77.8715 94.1507 77.6284 94.444C77.5048 94.568 77.3555 94.6641 77.1906 94.7259C77.0258 94.7876 76.8494 94.8135 76.6734 94.8017H76.3965V93.8603H76.6448C76.8803 93.8603 76.9981 93.6752 76.9981 93.305V90.1044L80.35 90.1515Z" fill="#262424"/>
<path d="M84.2379 93.8133V94.7546H81.3721V90.1515H84.1423V91.0457H82.3655V91.9871H84.0373V92.9284H82.3655V93.8697L84.2379 93.8133Z" fill="#262424"/>
<path d="M87.1493 92.373L88.9924 94.7076H87.7796L86.0702 92.5519V94.7076H85.1152V90.1515H86.0702V92.2507L87.7605 90.1515H88.9446L87.1493 92.3636V92.373Z" fill="#262424"/>
<path d="M93.2613 93.4273V94.5005C92.823 94.7065 92.3432 94.8127 91.8575 94.8111C91.538 94.8227 91.2197 94.7675 90.9234 94.6491C90.6271 94.5306 90.3596 94.3516 90.1386 94.1239C89.7013 93.6704 89.4643 93.0644 89.4797 92.4389C89.475 92.1285 89.5335 91.8204 89.6516 91.5326C89.7696 91.2448 89.945 90.9833 90.1673 90.7634C90.3786 90.5375 90.6357 90.358 90.922 90.2364C91.2082 90.1147 91.5172 90.0538 91.8289 90.0574C92.3294 90.0517 92.8239 90.1647 93.2709 90.3868V91.46C92.8678 91.1706 92.3847 91.0097 91.8862 90.9987C91.7072 90.9971 91.5299 91.0323 91.3655 91.102C91.2011 91.1717 91.0532 91.2744 90.9312 91.4035C90.8008 91.5407 90.699 91.702 90.6318 91.8781C90.5646 92.0541 90.5333 92.2415 90.5397 92.4295C90.5243 92.809 90.6576 93.1798 90.9121 93.465C91.0428 93.6011 91.2017 93.7078 91.3781 93.7776C91.5545 93.8475 91.7441 93.8789 91.9339 93.8698C92.4137 93.8455 92.8784 93.6961 93.2804 93.4368L93.2613 93.4273Z" fill="#262424"/>
<path d="M47.9007 103.019C47.9007 103.082 47.732 103.283 47.3946 103.622C46.7579 104.249 46.3091 104.563 46.0481 104.563C45.647 104.563 45.4465 104.334 45.4465 103.876C45.4808 103.608 45.5754 103.351 45.7234 103.123H44.6729L43.8326 104.488L43.0591 104.563L44.5679 102.342C44.7002 102.179 44.7947 101.989 44.8448 101.786C44.8448 101.702 44.7971 101.655 44.692 101.655C44.587 101.655 44.1382 101.909 43.632 102.426C43.1259 102.944 42.8681 103.198 42.8776 103.198C42.8872 103.198 42.8203 103.198 42.8203 103.198C42.8203 103.198 42.9063 103.019 43.0782 102.841C43.8931 101.962 44.4469 101.523 44.7398 101.523C45.0326 101.523 45.1759 101.692 45.1695 102.031C45.1292 102.405 44.991 102.762 44.7684 103.067H45.838C46.0417 102.753 46.3378 102.273 46.7261 101.626L47.5187 101.57L46.4205 103.264C46.1749 103.544 45.9781 103.862 45.838 104.206C45.838 104.347 45.9048 104.413 46.029 104.413C46.1531 104.413 46.6115 104.168 47.1081 103.688C47.6047 103.208 47.8434 102.963 47.8339 102.963C47.8243 102.963 47.9007 102.982 47.9007 103.019Z" fill="#262424"/>
<path d="M52.2836 103.001C52.2836 103.07 52.1149 103.274 51.7775 103.613C51.1409 104.24 50.6793 104.554 50.3928 104.554C50.1064 104.554 49.9536 104.372 49.9345 104.008C49.9419 103.869 49.961 103.73 49.9918 103.594C49.4824 104.221 49.0177 104.535 48.5975 104.535C48.1773 104.535 47.9641 104.165 47.9577 103.424C47.9579 103.253 47.9804 103.082 48.0246 102.916C47.9354 103.06 47.859 103.132 47.7954 103.132H47.7285C47.7285 103.132 47.9004 102.859 48.2442 102.521C48.7408 101.919 49.4577 101.533 50.24 101.447C50.6284 101.447 50.8226 101.617 50.8226 101.956C50.8338 102.034 50.8338 102.113 50.8226 102.191L51.2809 101.532H52.0067L50.7939 103.415C50.5967 103.668 50.4566 103.96 50.3833 104.271C50.3833 104.372 50.4406 104.422 50.5552 104.422C50.6698 104.422 50.9658 104.221 51.4433 103.82L52.255 103.02C52.255 103.02 52.2836 102.972 52.2836 103.001ZM50.6125 101.937C50.6125 101.711 50.4915 101.598 50.2496 101.598C49.8358 101.598 49.4156 101.912 48.9891 102.539C48.642 102.975 48.4328 103.503 48.3874 104.055C48.3874 104.281 48.4766 104.394 48.6548 104.394C48.8331 104.394 49.1737 104.165 49.6766 103.707C50.1967 103.249 50.5294 102.62 50.6125 101.937Z" fill="#262424"/>
<path d="M66.6273 103.038C66.6273 103.095 66.484 103.274 66.2071 103.556C65.9912 103.831 65.7221 104.06 65.4156 104.231C65.1091 104.403 64.7711 104.512 64.4213 104.554C64.2709 104.568 64.1194 104.541 63.9843 104.474C63.8491 104.408 63.7358 104.305 63.6574 104.177C63.4781 103.871 63.3857 103.523 63.39 103.17C63.4016 103.001 63.4336 102.833 63.4855 102.671C63.5365 102.509 63.5686 102.342 63.581 102.172C63.581 102.059 63.4568 101.833 63.1608 101.495C62.6937 102.118 62.1554 102.687 61.5564 103.189C61.6514 103.422 61.7 103.672 61.6997 103.923C61.7108 104.455 61.5201 104.972 61.1649 105.373C60.9922 105.575 60.7755 105.737 60.5309 105.846C60.2863 105.956 60.02 106.009 59.7516 106.004C59.637 106.004 59.5797 106.004 59.5797 105.909C59.5797 105.815 59.6752 105.844 59.8757 105.796L60.2768 105.683C60.6129 105.544 60.8955 105.303 61.0842 104.995C61.2729 104.687 61.358 104.329 61.3273 103.97C61.3244 103.774 61.302 103.579 61.2604 103.387C60.3977 104.063 59.3509 104.473 58.2523 104.563C57.5893 104.591 56.9404 104.369 56.4379 103.942C56.1962 103.723 56.006 103.454 55.8807 103.155C55.7553 102.856 55.6978 102.533 55.7121 102.21C55.7013 101.877 55.7621 101.545 55.8905 101.237C56.0188 100.929 56.2119 100.651 56.457 100.421C56.7039 100.191 56.9947 100.01 57.3126 99.8906C57.6306 99.771 57.9694 99.7147 58.3096 99.7248C58.7456 99.7101 59.1736 99.843 59.5224 100.101C59.6968 100.228 59.8375 100.394 59.9323 100.586C60.0271 100.778 60.0732 100.989 60.0667 101.203C60.0635 101.541 59.9533 101.87 59.7516 102.144C60.1088 102.12 60.4657 102.196 60.7814 102.362C61.0972 102.529 61.3591 102.779 61.5374 103.085C62.118 102.56 62.5772 101.918 62.8838 101.203C62.2636 100.446 61.9263 99.5021 61.9289 98.5293C61.9176 98.1507 61.9926 97.7743 62.1485 97.428C62.2159 97.2555 62.3334 97.1063 62.4862 96.9992C62.6391 96.8921 62.8205 96.8317 63.008 96.8255C63.2226 96.8302 63.4313 96.8957 63.6091 97.0143C63.7869 97.1328 63.9263 97.2993 64.0107 97.4939C64.2163 97.873 64.3214 98.2972 64.3163 98.727C64.2327 99.6893 63.9043 100.615 63.3613 101.419C63.4473 101.532 63.5714 101.664 63.7242 101.833C63.903 101.949 64.0752 102.075 64.2399 102.21C64.2744 102.244 64.3009 102.286 64.3174 102.331C64.3339 102.377 64.3401 102.425 64.3354 102.474C64.3294 102.623 64.3069 102.771 64.2685 102.916C64.234 103.062 64.2085 103.21 64.1921 103.358C64.1921 103.462 64.1921 103.537 64.1921 103.594C64.1921 104.165 64.3577 104.45 64.6887 104.45C65.1036 104.435 65.4966 104.263 65.7869 103.97L66.6655 103.104C66.6655 103.104 66.6273 103.001 66.6273 103.038ZM61.2031 103.217C61.0877 102.917 60.8758 102.663 60.5999 102.493C60.324 102.323 59.9992 102.247 59.6752 102.276H59.5606C59.1659 102.684 58.8476 102.888 58.6056 102.888C58.4146 102.888 58.3287 102.822 58.3287 102.681C58.3287 102.539 58.7107 102.229 59.4842 102.125C59.546 101.959 59.5783 101.784 59.5797 101.608C59.5842 101.387 59.5415 101.169 59.4542 100.966C59.367 100.763 59.2373 100.581 59.0736 100.431C58.7498 100.119 58.3136 99.9461 57.8608 99.9508C57.625 99.9434 57.3905 99.9877 57.1741 100.081C56.9578 100.173 56.765 100.312 56.6098 100.487C56.3008 100.843 56.1373 101.299 56.1514 101.768C56.1393 102.094 56.1987 102.42 56.3256 102.722C56.4525 103.024 56.6438 103.296 56.8867 103.518C57.3848 103.963 58.039 104.2 58.7107 104.177C59.6283 104.155 60.5094 103.819 61.2031 103.227V103.217ZM63.5237 98.0304C63.5237 97.246 63.2977 96.8538 62.8456 96.8538C62.3936 96.8538 62.1708 97.3056 62.1772 98.2093C62.1796 99.144 62.4369 100.061 62.922 100.864C63.3066 99.9666 63.5109 99.0044 63.5237 98.0304Z" fill="#262424"/>
<path d="M70.6094 103.02C70.5917 103.112 70.5409 103.196 70.4662 103.255C69.9043 103.851 69.2616 104.367 68.5563 104.789C67.4294 106.904 66.4744 107.962 65.6914 107.962C65.6157 107.972 65.5385 107.966 65.4659 107.942C65.3932 107.919 65.327 107.879 65.2725 107.826C65.218 107.773 65.1765 107.709 65.1515 107.637C65.1264 107.566 65.1184 107.49 65.128 107.416C65.128 106.97 65.5163 106.452 66.293 105.862C66.8648 105.448 67.4611 105.068 68.0788 104.723L68.9573 103.067C68.6608 103.416 68.3419 103.746 68.0024 104.055C67.7595 104.291 67.4435 104.44 67.1047 104.479C67.0311 104.479 66.959 104.459 66.8965 104.42C66.834 104.382 66.7837 104.327 66.7514 104.262C66.6786 104.133 66.6423 103.986 66.6463 103.838C66.7434 103.342 66.9631 102.876 67.2862 102.483L67.5249 102.135C66.8883 102.819 66.554 103.161 66.5222 103.161H66.4649C66.8754 102.587 67.3459 102.057 67.8687 101.579H68.6613L68.0692 102.521L67.9928 102.634C67.5942 103.113 67.2722 103.649 67.0379 104.224C67.0379 104.369 67.0952 104.441 67.2098 104.441C67.5281 104.441 68.0087 104.058 68.6517 103.293C69.0867 102.776 69.4824 102.228 69.8359 101.655H70.5139C69.8773 102.703 69.2916 103.716 68.7568 104.695C69.4061 104.23 70.0075 103.704 70.5521 103.123C70.5521 103.123 70.6094 102.972 70.6094 103.02ZM68.0215 104.949C66.3344 105.909 65.4908 106.738 65.4908 107.434C65.4908 107.679 65.5959 107.801 65.806 107.801C66.0161 107.801 66.5795 107.406 67.0952 106.625C67.2862 106.317 67.5917 105.759 68.0119 104.949H68.0215Z" fill="#262424"/>
<path d="M74.0093 103.019C73.9861 103.118 73.9328 103.206 73.8565 103.274C73.6578 103.486 73.4474 103.687 73.2262 103.876C72.8952 104.165 72.5259 104.479 72.1185 104.817C70.9916 106.932 70.0367 107.99 69.2536 107.99C69.1776 108.003 69.0995 107.997 69.0259 107.975C68.9523 107.952 68.8852 107.912 68.8302 107.859C68.7752 107.806 68.7338 107.74 68.7094 107.668C68.6851 107.596 68.6785 107.519 68.6902 107.444C68.6902 106.779 69.6738 105.881 71.641 104.752C71.6843 104.644 71.707 104.529 71.7079 104.413C71.7079 104.074 71.5742 103.904 71.3068 103.904C71.2297 103.911 71.1549 103.933 71.0871 103.97L70.9248 104.036C70.9248 104.036 70.8675 104.036 70.8675 103.961C70.8675 103.886 71.0298 103.791 71.3641 103.603C71.7053 103.429 72.0256 103.217 72.319 102.972C72.4677 102.849 72.5887 102.697 72.6742 102.525C72.7597 102.353 72.8079 102.166 72.8156 101.975C72.8156 101.711 72.7106 101.579 72.5005 101.579H72.3954C72.1439 101.633 71.9161 101.765 71.7447 101.954C71.5732 102.143 71.4667 102.381 71.4405 102.634C71.4199 102.772 71.3603 102.903 71.2686 103.01C71.2261 103.065 71.1712 103.11 71.1083 103.141C71.0454 103.172 70.9761 103.189 70.9057 103.189C70.8611 103.19 70.817 103.18 70.7771 103.16C70.7371 103.14 70.7027 103.112 70.6765 103.076C70.6765 103.132 70.6288 103.17 70.6097 103.17C70.5906 103.17 70.5428 103.17 70.5428 103.17C70.7321 102.76 71.0068 102.394 71.349 102.096C71.6912 101.797 72.0933 101.573 72.5291 101.438H72.7297C72.9045 101.433 73.076 101.486 73.2167 101.589C73.2888 101.638 73.3475 101.704 73.3875 101.782C73.4274 101.859 73.4475 101.944 73.4459 102.031C73.4459 102.42 73.1817 102.772 72.6533 103.085L71.9561 103.518C72.0305 103.522 72.1032 103.542 72.1691 103.576C72.2351 103.61 72.2927 103.658 72.3381 103.716C72.4379 103.835 72.492 103.985 72.4909 104.14C72.4917 104.297 72.4523 104.453 72.3763 104.592C72.966 104.106 73.5272 103.587 74.0571 103.038C74.0571 103.038 74.0093 102.972 74.0093 103.019ZM71.5073 104.949C69.8202 105.909 68.9767 106.738 68.9767 107.434C68.9767 107.679 69.0817 107.801 69.2918 107.801C69.8202 107.801 70.5587 106.851 71.5073 104.949Z" fill="#262424"/>
<path d="M77.1413 103.02C77.1413 103.082 76.9535 103.302 76.5779 103.678C76.2018 104.179 75.644 104.516 75.0213 104.62C74.8789 104.625 74.7377 104.592 74.612 104.526C74.4863 104.46 74.3804 104.362 74.3051 104.243C74.1478 104.006 74.0679 103.727 74.0759 103.443C74.0787 103.287 74.1011 103.132 74.1427 102.982C74.0281 103.132 73.9422 103.198 73.904 103.198C73.8658 103.198 73.8467 103.198 73.8467 103.198C73.9594 102.998 74.1045 102.816 74.2764 102.662C74.515 102.344 74.8184 102.08 75.1671 101.885C75.5158 101.691 75.9021 101.57 76.3009 101.532C76.7084 101.532 76.9121 101.702 76.9121 102.041C76.9121 102.379 76.6288 102.721 76.0622 103.067C75.6298 103.296 75.1669 103.464 74.687 103.566C74.659 103.709 74.6399 103.853 74.6297 103.999C74.6297 104.337 74.7762 104.507 75.069 104.507C75.3956 104.479 75.704 104.347 75.9476 104.13C76.2145 103.918 76.4636 103.685 76.6925 103.434C76.8035 103.293 76.9318 103.167 77.0744 103.057C77.0744 103.057 77.1413 102.982 77.1413 103.02ZM76.5397 101.786C76.5397 101.645 76.4728 101.57 76.3487 101.57C76.1513 101.604 75.9637 101.679 75.7989 101.791C75.634 101.903 75.4958 102.049 75.3937 102.219C75.1322 102.544 74.9228 102.906 74.773 103.293C75.1872 103.2 75.5775 103.024 75.9189 102.775C76.0942 102.67 76.2418 102.526 76.3497 102.354C76.4576 102.182 76.5227 101.988 76.5397 101.786Z" fill="#262424"/>
</g>
<defs>
<radialGradient id="paint0_radial_408_922" cx="0" cy="0" r="1" gradientUnits="userSpaceOnUse" gradientTransform="translate(59.9809 74.4594) scale(43.3646 42.746)">
<stop stop-color="#C09B66"/>
<stop offset="0.15" stop-color="#B6925D"/>
<stop offset="0.69" stop-color="#987441"/>
<stop offset="1" stop-color="#8C6936"/>
</radialGradient>
<clipPath id="clip0_408_922">
<rect width="120" height="108" fill="white"/>
</clipPath>
</defs>
</svg>
